<svg xmlns="http://www.w3.org/2000/svg" viewBox="0 0 16 16">
  <defs>
    <style>.canvas{fill: none; opacity: 0;}.light-purple-10{fill: #6936aa; opacity: 0.1;}.light-purple{fill: #6936aa; opacity: 1;}.light-defaultgrey-10{fill: #212121; opacity: 0.1;}.light-defaultgrey{fill: #212121; opacity: 1;}.cls-1{opacity:0.75;}</style>
  </defs>
  <title>IconLightModuleInternal</title>
  <g id="canvas" class="canvas">
    <path class="canvas" d="M16,16H0V0H16Z" />
  </g>
  <g id="level-1">
    <g class="cls-1">
      <path class="light-purple-10" d="M8.7,14.5H1.5v-5H7.635A3.48,3.48,0,0,0,7,11.5a3.6,3.6,0,0,0,.316,1.438l.182.347A5.521,5.521,0,0,0,8.7,14.5Z" />
      <path class="light-purple" d="M9.272,15H1.5L1,14.5v-5L1.5,9H8.058a3.515,3.515,0,0,0-.707,1H2v4H8.143C8.4,14.236,8.756,14.559,9.272,15Z" />
    </g>
    <path class="light-purple-10" d="M1.5,2.5h5v5h-5Zm7,0v5h5v-5Z" />
    <path class="light-purple" d="M1.5,2,1,2.5v5l.5.5h5L7,7.5v-5L6.5,2ZM6,7H2V3H6Zm7.5-5h-5L8,2.5v5l.5.5h5l.5-.5v-5ZM13,7H9V3h4Z" />
    <path class="light-defaultgrey-10" d="M15.5,11.5a1.99,1.99,0,0,1-.148.75l-.138.265c-.2.331-3.214,2.81-3.214,2.81s-3.018-2.479-3.214-2.81l-.138-.265A1.993,1.993,0,0,1,12,10.19a1.992,1.992,0,0,1,3.5,1.31Z" />
    <path class="light-defaultgrey" d="M13.5,9a2.478,2.478,0,0,0-1.5.509A2.491,2.491,0,0,0,8,11.5a2.525,2.525,0,0,0,.2.979l.152.293a33.618,33.618,0,0,0,3.327,2.94l.317.261.317-.261a31.686,31.686,0,0,0,3.342-2.968l.156-.306A2.5,2.5,0,0,0,13.5,9ZM14.9,12.047l-.1.192c-.167.218-1.5,1.364-2.8,2.438-1.3-1.074-2.63-2.217-2.771-2.39l-.117-.224a1.493,1.493,0,0,1,2.512-1.544l.376.43.376-.43A1.494,1.494,0,0,1,14.9,12.047Z" />
  </g>
</svg>
