<svg xmlns="http://www.w3.org/2000/svg" viewBox="0 0 16 16">
  <defs>
    <style>.canvas{fill: none; opacity: 0;}.light-purple-10{fill: #6936aa; opacity: 0.1;}.light-purple{fill: #6936aa; opacity: 1;}.cls-1{opacity:0.75;}</style>
  </defs>
  <title>Module</title>
  <g id="canvas">
    <path class="canvas" d="M16,16H0V0H16Z" />
  </g>
  <g id="level-1">
    <g class="cls-1">
      <path class="light-purple-10" d="M2.5,9.5v5h12v-5Z" />
      <path class="light-purple" d="M14.5,9H2.5L2,9.5v5l.5.5h12l.5-.5v-5ZM14,14H3V10H14Z" />
    </g>
    <path class="light-purple-10" d="M14.5,2.5v5h-5v-5Zm-12,5h5v-5h-5Z" />
    <path class="light-purple" d="M14.5,2h-5L9,2.5v5l.5.5h5l.5-.5v-5ZM14,7H10V3h4ZM2.5,2,2,2.5v5l.5.5h5L8,7.5v-5L7.5,2ZM7,7H3V3H7Z" />
  </g>
</svg>
