<svg xmlns="http://www.w3.org/2000/svg" viewBox="0 0 16 16">
  <defs>
    <style>.canvas{fill: none; opacity: 0;}.light-defaultgrey{fill: #212121; opacity: 1;}.light-green-10{fill: #1f801f; opacity: 0.1;}.light-green{fill: #1f801f; opacity: 1;}.light-defaultgrey-10{fill: #212121; opacity: 0.1;}.cls-1{opacity:0.75;}</style>
  </defs>
  <title>IconLightObjectInternal</title>
  <g id="canvas" class="canvas">
    <path class="canvas" d="M16,16H0V0H16Z" />
  </g>
  <g id="level-1">
    <g class="cls-1">
      <path class="light-defaultgrey" d="M12,3V4h3V3Zm0,5H5V7h7ZM1,12H7V11H1Z" />
    </g>
    <path class="light-green-10" d="M9.5,1.5v3h-8v-3Z" />
    <path class="light-green" d="M9.5,1h-8L1,1.5v3l.5.5h8l.5-.5v-3ZM9,4H2V2H9Z" />
    <path class="light-defaultgrey-10" d="M14.9,12.047l-.1.192c-.167.218-1.5,1.364-2.8,2.438-1.3-1.074-2.63-2.217-2.771-2.39l-.117-.224a1.493,1.493,0,0,1,2.512-1.544l.376.43.376-.43A1.494,1.494,0,0,1,14.9,12.047Z" />
    <path class="light-defaultgrey" d="M13.5,9a2.478,2.478,0,0,0-1.5.509A2.491,2.491,0,0,0,8,11.5a2.525,2.525,0,0,0,.2.979l.152.293a33.618,33.618,0,0,0,3.327,2.94l.317.261.317-.261a31.686,31.686,0,0,0,3.342-2.968l.156-.306A2.5,2.5,0,0,0,13.5,9ZM14.9,12.047l-.1.192c-.167.218-1.5,1.364-2.8,2.438-1.3-1.074-2.63-2.217-2.771-2.39l-.117-.224a1.493,1.493,0,0,1,2.512-1.544l.376.43.376-.43A1.494,1.494,0,0,1,14.9,12.047Z" />
  </g>
</svg>
