<svg xmlns="http://www.w3.org/2000/svg" viewBox="0 0 16 16">
  <defs>
    <style>.canvas{fill: none; opacity: 0;}.light-defaultgrey-10{fill: #212121; opacity: 0.1;}.light-defaultgrey{fill: #212121; opacity: 1;}.light-shadow{fill: #000000; opacity: 0.1;}.cls-1{opacity:0.75;}</style>
  </defs>
  <title>IconLightRepository</title>
  <g id="canvas" class="canvas">
    <path class="canvas" d="M16,16H0V0H16Z" />
  </g>
  <g id="level-2">
    <g class="cls-1">
      <path class="light-defaultgrey-10" d="M13.5,5.5v9H2.5v-9Z" />
      <path class="light-defaultgrey" d="M13.5,5H2.5L2,5.5v9l.5.5h11l.5-.5v-9ZM13,14H3V6H13Z" />
    </g>
  </g>
  <g id="level-1">
    <path class="light-shadow" d="M14.5,3H1.5L1,3.5v3l.5.5h13l.5-.5v-3ZM14,6H2V4H14Z" />
    <path class="light-defaultgrey-10" d="M14.5,2.5v3H1.5v-3Z" />
    <path class="light-defaultgrey" d="M14.5,2H1.5L1,2.5v3l.5.5h13l.5-.5v-3ZM14,5H2V3H14Z" />
    <path class="light-shadow" d="M10,7v5.817L8,11.15,6,12.817V7H7v3.683L8,9.85l1,.833V7Z" />
    <path class="light-defaultgrey" d="M10,6v5.817L8,10.15,6,11.817V6H7V9.683L8,8.85l1,.833V6Z" />
  </g>
</svg>
