<svg xmlns="http://www.w3.org/2000/svg" viewBox="0 0 16 16">
  <defs>
    <style>.canvas{fill: none; opacity: 0;}.light-defaultgrey-10{fill: #212121; opacity: 0.1;}.light-defaultgrey{fill: #212121; opacity: 1;}</style>
  </defs>
  <title>IconLightTeapotPreview</title>
  <g id="canvas">
    <path class="canvas" d="M16,16H0V0H16Z" />
    <path class="canvas" d="M16,16H0V0H16Z" />
  </g>
  <g id="level-1">
    <path class="light-defaultgrey-10" d="M9.761,5H5.213A3.158,3.158,0,0,1,9.761,5Zm.432,9H4.807A5.254,5.254,0,0,1,3,9.976,5.274,5.274,0,0,1,4.752,6h5.5A5.274,5.274,0,0,1,12,9.976,5.254,5.254,0,0,1,10.193,14ZM15,7.808A3.959,3.959,0,0,0,14,10.5a1.753,1.753,0,0,1-1.292,1.38,6.343,6.343,0,0,0,.109-3.415A3.327,3.327,0,0,1,15,7.041Z" />
    <path class="light-defaultgrey" d="M7.5,4A1.5,1.5,0,1,1,9,2.5,1.5,1.5,0,0,1,7.5,4Zm0-2a.5.5,0,1,0,.5.5A.5.5,0,0,0,7.5,2Z" />
    <path class="light-defaultgrey" d="M3.156,12.986H2.539A2.8,2.8,0,0,1,0,9.986a2.8,2.8,0,0,1,2.539-3h.419v1H2.539A1.818,1.818,0,0,0,1,9.986a1.817,1.817,0,0,0,1.539,2h.617Z" />
    <path class="light-defaultgrey" d="M10.823,6H4.151a.5.5,0,0,1-.415-.779A4.6,4.6,0,0,1,7.487,3a4.593,4.593,0,0,1,3.751,2.222A.5.5,0,0,1,10.823,6ZM5.213,5H9.761A3.158,3.158,0,0,0,5.213,5Z" />
    <path class="light-defaultgrey" d="M10.369,15H4.631a.5.5,0,0,1-.307-.105A6.235,6.235,0,0,1,2,9.976,6.257,6.257,0,0,1,4.258,5.11.5.5,0,0,1,4.571,5h5.858a.5.5,0,0,1,.313.11A6.257,6.257,0,0,1,13,9.976,6.235,6.235,0,0,1,10.676,14.9.5.5,0,0,1,10.369,15ZM4.807,14h5.386A5.254,5.254,0,0,0,12,9.976,5.274,5.274,0,0,0,10.248,6h-5.5A5.274,5.274,0,0,0,3,9.976,5.254,5.254,0,0,0,4.807,14Z" />
    <path class="light-defaultgrey" d="M12,13a.5.5,0,0,1,0-1,1.906,1.906,0,0,0,2-1.5,3.959,3.959,0,0,1,1-2.692V7.041a3.338,3.338,0,0,0-2.238,1.492.527.527,0,0,1-.676.267.482.482,0,0,1-.256-.643,1.306,1.306,0,0,1,.093-.168A4.286,4.286,0,0,1,15.5,6a.5.5,0,0,1,.5.5V8a.5.5,0,0,1-.136.343A2.984,2.984,0,0,0,15,10.5,2.868,2.868,0,0,1,12,13Z" />
  </g>
</svg>
