<svg xmlns="http://www.w3.org/2000/svg" viewBox="0 0 16 16">
  <defs>
    <style>.canvas{fill: none; opacity: 0;}.light-blue-10{fill: #005dba; opacity: 0.1;}.light-blue{fill: #005dba; opacity: 1;}.light-defaultgrey-10{fill: #212121; opacity: 0.1;}.light-defaultgrey{fill: #212121; opacity: 1;}.cls-1{opacity:0.75;}</style>
  </defs>
  <title>IconLightTypeInternal</title>
  <g id="canvas" class="canvas">
    <path class="canvas" d="M16,16H0V0H16Z" />
  </g>
  <g id="level-1">
    <path class="light-blue-10" d="M9.5,5.5V8.16A3.559,3.559,0,0,0,7.162,12.5H1.5v-7Z" />
    <g class="cls-1">
      <path class="light-blue" d="M13,3H6V5H5V2.5L5.5,2h8l.5.5V8.051A3.443,3.443,0,0,0,13.5,8a3.373,3.373,0,0,0-.5.057Z" />
      <path class="light-blue-10" d="M5.5,2.5v3h4V8.16c-.024.008-.044.02-.068.029A3.409,3.409,0,0,1,10.5,8a3.468,3.468,0,0,1,1.5.344A3.468,3.468,0,0,1,13.5,8V2.5Z" />
      <path class="light-blue-10" d="M8.523,8.647c-.035.023-.069.047-.1.071C8.454,8.693,8.489,8.671,8.523,8.647Z" />
      <path class="light-blue-10" d="M7.7,9.427a3.439,3.439,0,0,1,.405-.456A3.155,3.155,0,0,0,7.7,9.427Z" />
    </g>
    <path class="light-blue" d="M7.316,12.938,7.349,13H1.5L1,12.5v-7L1.5,5h8l.5.5V8.051a3.44,3.44,0,0,0-1,.3V6H2v6H7.054A3.9,3.9,0,0,0,7.316,12.938Z" />
    <path class="light-defaultgrey-10" d="M15.5,11.5a1.99,1.99,0,0,1-.148.75l-.138.265c-.2.331-3.214,2.81-3.214,2.81s-3.018-2.479-3.214-2.81l-.138-.265A1.993,1.993,0,0,1,12,10.19a1.992,1.992,0,0,1,3.5,1.31Z" />
    <path class="light-defaultgrey" d="M13.5,9a2.478,2.478,0,0,0-1.5.509A2.491,2.491,0,0,0,8,11.5a2.525,2.525,0,0,0,.2.979l.152.293a33.618,33.618,0,0,0,3.327,2.94l.317.261.317-.261a31.686,31.686,0,0,0,3.342-2.968l.156-.306A2.5,2.5,0,0,0,13.5,9ZM14.9,12.047l-.1.192c-.167.218-1.5,1.364-2.8,2.438-1.3-1.074-2.63-2.217-2.771-2.39l-.117-.224a1.493,1.493,0,0,1,2.512-1.544l.376.43.376-.43A1.494,1.494,0,0,1,14.9,12.047Z" />
  </g>
</svg>
