<svg xmlns="http://www.w3.org/2000/svg" viewBox="0 0 16 16">
  <defs>
    <style>.canvas{fill: none; opacity: 0;}.light-blue-10{fill: #005dba; opacity: 0.1;}.light-blue{fill: #005dba; opacity: 1;}.light-defaultgrey-10{fill: #212121; opacity: 0.1;}.light-defaultgrey{fill: #212121; opacity: 1;}.cls-1{opacity:0.75;}</style>
  </defs>
  <title>IconLightFieldProtected</title>
  <g id="canvas" class="canvas">
    <path class="canvas" d="M16,16H0V0H16Z" />
  </g>
  <g id="level-1">
    <g class="cls-1">
      <path class="light-blue-10" d="M5.192,13.518,1.5,10.4V6.244L9.808,1.629,13.5,5.321V6H13V7.459H10.966L9.922,9.573l-2.334.339-.659,2.036.4.386Z" />
      <path class="light-blue" d="M7.325,12.334l.747.729L5.435,14.528l-.6-.084L1.146,10.752,1,10.4V6.244l.257-.437L9.565,1.191l.6.084,3.692,3.693L14,5.321v3.95l-.894-1.812H13V5.528L9.721,2.249,2,6.538v3.653l2.692,2.692V9.608h1v3.633Z" />
    </g>
    <path class="light-blue-10" d="M13.418,5.22,5.239,9.764,1.6,6.129l8.18-4.545Z" />
    <path class="light-blue" d="M5.477,10.194l-.586-.082L1.256,6.477,1.365,5.7,9.543,1.154l.587.083,3.636,3.635-.108.778ZM2.455,6.285,5.324,9.154,12.59,5.118,9.721,2.249Z" />
    <path class="light-defaultgrey-10" d="M13.844,13.07l.426,2.488-2.234-1.175L9.8,15.558l.427-2.488L8.42,11.308l2.5-.363,1.118-2.264,1.117,2.264,2.5.363Z" />
    <path class="light-defaultgrey" d="M16,11.666l-.276-.853-2.239-.326-1-2.028h-.9l-1,2.028-2.238.326-.277.853L9.69,13.244l-.382,2.229.725.527,2-1.053,2,1.053.726-.527-.383-2.229Zm-2.394,2.978-1.337-.7H11.8l-1.339.7.256-1.49-.145-.443L9.494,11.656l1.5-.217.376-.273.67-1.356.669,1.356.376.273,1.5.217L13.5,12.711l-.144.443Z" />
  </g>
</svg>
