<svg xmlns="http://www.w3.org/2000/svg" viewBox="0 0 16 16">
  <defs>
    <style>.canvas{fill: none; opacity: 0;}.light-blue{fill: #005dba; opacity: 1;}.light-blue-10{fill: #005dba; opacity: 0.1;}.light-defaultgrey-10{fill: #212121; opacity: 0.1;}.light-defaultgrey{fill: #212121; opacity: 1;}.cls-1{opacity:0.75;}</style>
  </defs>
  <title>IconLightInterfaceInternal</title>
  <g id="canvas" class="canvas">
    <path class="canvas" d="M16,16H0V0H16Z" />
  </g>
  <g id="level-1">
    <g class="cls-1">
      <path class="light-blue" d="M8.5,6V7h-4V6Z" />
    </g>
    <path class="light-blue-10" d="M4.5,6.5a2,2,0,1,1-2-2A2,2,0,0,1,4.5,6.5Zm6,1.5a3.469,3.469,0,0,0-1.393.293,3,3,0,1,1,4.947-.237A3.236,3.236,0,0,0,12,8.344,3.472,3.472,0,0,0,10.5,8Z" />
    <path class="light-blue" d="M2.5,4A2.5,2.5,0,1,0,5,6.5,2.5,2.5,0,0,0,2.5,4Zm0,4A1.5,1.5,0,1,1,4,6.5,1.5,1.5,0,0,1,2.5,8Zm6.607.293a3.54,3.54,0,0,0-.448.236,3.507,3.507,0,1,1,5.891-.347A3.613,3.613,0,0,0,13.5,8l-.014,0A2.478,2.478,0,0,0,14,6.5a2.5,2.5,0,0,0-5,0,2.478,2.478,0,0,0,.618,1.628A3.543,3.543,0,0,0,9.107,8.293Z" />
    <path class="light-defaultgrey-10" d="M15.5,11.5a1.99,1.99,0,0,1-.148.75l-.138.265c-.2.331-3.214,2.81-3.214,2.81s-3.018-2.479-3.214-2.81l-.138-.265A1.993,1.993,0,0,1,12,10.19a1.992,1.992,0,0,1,3.5,1.31Z" />
    <path class="light-defaultgrey" d="M13.5,9a2.478,2.478,0,0,0-1.5.509A2.491,2.491,0,0,0,8,11.5a2.543,2.543,0,0,0,.2.979l.152.293a33.618,33.618,0,0,0,3.327,2.94l.317.261.317-.261a31.686,31.686,0,0,0,3.342-2.968l.156-.306A2.5,2.5,0,0,0,13.5,9ZM14.9,12.047l-.1.192c-.167.218-1.5,1.364-2.8,2.438-1.3-1.074-2.63-2.217-2.771-2.39l-.117-.224a1.493,1.493,0,0,1,2.512-1.544l.376.43.376-.43A1.494,1.494,0,0,1,14.9,12.047Z" />
  </g>
</svg>
