<svg xmlns="http://www.w3.org/2000/svg" viewBox="0 0 16 16">
  <defs>
    <style>.canvas{fill: none; opacity: 0;}.light-blue-10{fill: #005dba; opacity: 0.1;}.light-blue{fill: #005dba; opacity: 1;}</style>
  </defs>
  <title>IconLightOperator</title>
  <g id="canvas">
    <path class="canvas" d="M16,0V16H0V0Z" />
  </g>
  <g id="level-1">
    <path class="light-blue-10" d="M1.5,1.5v13h13V1.5Z" />
    <path class="light-blue" d="M14.5,1H1.5L1,1.5v13l.5.5h13l.5-.5V1.5ZM14,14H2V2H14Z" />
    <path class="light-blue" d="M8,6H6V8H5V6H3V5H5V3H6V5H8Zm5-1H9V6h4ZM7.5,10h-4v1h4Zm0,3h-4V12h4ZM9,13h1.155l2.309-4H11.309Z" />
  </g>
</svg>
