<svg xmlns="http://www.w3.org/2000/svg" viewBox="0 0 16 16">
  <defs>
    <style>.canvas{fill: none; opacity: 0;}.light-defaultgrey-10{fill: #212121; opacity: 0.1;}.light-defaultgrey{fill: #212121; opacity: 1;}.cls-1{opacity:0.75;}</style>
  </defs>
  <title>IconLightPropertyProtected</title>
  <g id="canvas" class="canvas">
    <path class="canvas" d="M16,16H0V0H16Z" />
  </g>
  <g id="level-1">
    <g class="cls-1">
      <path class="light-defaultgrey-10" d="M8,8.451c-1.883,1.894-4.507,4.5-5.92,5.816-.861.75-2.077-.651-1.418-1.4,1.335-1.4,3.981-4.026,5.875-5.874A3.924,3.924,0,0,0,8,8.451Z" />
      <path class="light-defaultgrey" d="M8.475,8.679c-1.83,1.842-4.561,4.56-6.057,5.954a1.352,1.352,0,0,1-.892.346,1.5,1.5,0,0,1-1.056-.47,1.444,1.444,0,0,1-.187-1.973c1.383-1.448,4.122-4.167,6.022-6.018a3.9,3.9,0,0,0,.506.9c-1.858,1.817-4.466,4.408-5.791,5.8-.134.153.009.441.158.591a.4.4,0,0,0,.57.087C3.173,12.563,5.755,10,7.567,8.174A4,4,0,0,0,8.475,8.679Z" />
    </g>
    <path class="light-defaultgrey" d="M6,5a3.961,3.961,0,0,1,4-4,4.19,4.19,0,0,1,1.441.241L8.559,4.2,10.8,6.441l2.959-2.882A4.19,4.19,0,0,1,14,5a3.982,3.982,0,0,1-.876,2.5l-.018-.036h-2.14l-.75,1.52c-.073,0-.142.021-.216.021A3.961,3.961,0,0,1,6,5Z" />
    <path class="light-defaultgrey-10" d="M13.844,13.07l.426,2.488-2.234-1.175L9.8,15.558l.427-2.488L8.42,11.308l2.5-.363,1.118-2.264,1.117,2.264,2.5.363Z" />
    <path class="light-defaultgrey" d="M16,11.666l-.276-.853-2.239-.326-1-2.028h-.9l-1,2.028-2.238.326-.277.853L9.69,13.244l-.382,2.229.725.527,2-1.053,2,1.053.726-.527-.383-2.229Zm-2.394,2.978-1.337-.7H11.8l-1.339.7.256-1.49-.145-.443L9.494,11.656l1.5-.217.376-.273.67-1.356.669,1.356.376.273,1.5.217L13.5,12.711l-.144.443Z" />
  </g>
</svg>
