<svg xmlns="http://www.w3.org/2000/svg" viewBox="0 0 16 16">
  <defs>
    <style>.canvas{fill: none; opacity: 0;}.light-defaultgrey-10{fill: #212121; opacity: 0.1;}.light-defaultgrey{fill: #212121; opacity: 1;}</style>
  </defs>
  <title>IconLightReferencePrivate</title>
  <g id="canvas">
    <path class="canvas" d="M16,16H0V0H16Z" />
  </g>
  <g id="level-1">
    <path class="light-defaultgrey-10" d="M3.5,6.5v3H.5v-3Z" />
    <path class="light-defaultgrey-10" d="M9.586,10.5H8.5v-5h5V7.051A2.942,2.942,0,0,0,13,7a3,3,0,0,0-3,3v.086Z" />
    <path class="light-defaultgrey" d="M8,5V7.5H4V6L0,6V9.965L4,10V8.5H8V11H9.086L10,10.086V10H9V6h4V7a2.966,2.966,0,0,1,1,.184V5ZM3,9H1V7H3Z" />
    <path class="light-defaultgrey-10" d="M15.5,11.5v4h-5v-4Z" />
    <path class="light-defaultgrey" d="M15.5,11H15V10a2,2,0,0,0-4,0v1h-.5l-.5.5v4l.5.5h5l.5-.5v-4ZM12,10a1,1,0,0,1,2,0v1H12Zm3,5H11V12h4Z" />
  </g>
</svg>
