<svg xmlns="http://www.w3.org/2000/svg" width="16" height="16"><style type="text/css">.icon-canvas-transparent{opacity:0;fill:#F6F6F6;} .icon-vs-out{fill:#F6F6F6;} .icon-vs-bg{fill:#424242;} .icon-vs-fg{fill:#F0EFF1;} .icon-visualstudio{fill:#68217A;}</style><path class="icon-canvas-transparent" d="M16 16h-16v-16h16v16z" id="canvas"/><path class="icon-vs-out" d="M16 0v14h-6v.618l-2.764 1.382h-.65l-2-2h-1.172l-1.414 1.414-1.414-1.414h-.586v-14h16z" id="outline"/><path class="icon-vs-bg" d="M15 1v12h-5v-1h4v-8h-12v2.586l-1 1v-6.586h14z" id="iconBg"/><path class="icon-vs-fg" d="M14 4v8h-4v-4.618l-3.197-1.599-2.803 2.803-2-2v-2.586h12z" id="iconFg"/><path class="icon-visualstudio" d="M7 7l-3 3-2-2-1 1v4l1 1 2-2 3 3 2-1v-6l-2-1zm-5 5v-2l1 1-1 1zm3-1l2-2v4l-2-2z" id="colorImportance"/></svg>