<svg xmlns="http://www.w3.org/2000/svg" viewBox="0 0 16 16">
  <defs>
    <style>.canvas{fill: none; opacity: 0;}.light-blue-10{fill: #005dba; opacity: 0.1;}.light-blue{fill: #005dba; opacity: 1;}.light-defaultgrey-10{fill: #212121; opacity: 0.1;}.light-defaultgrey{fill: #212121; opacity: 1;}.cls-1{opacity:0.75;}</style>
  </defs>
  <title>IconLightStructureInternal</title>
  <g id="canvas" class="canvas">
    <path class="canvas" d="M16,16H0V0H16Z" />
  </g>
  <g id="level-1">
    <g class="cls-1">
      <path class="light-blue-10" d="M1.5,7.5h3v3h-3Z" />
      <path class="light-blue-10" d="M11,8.057a3.483,3.483,0,0,1,1,.286,3.483,3.483,0,0,1,1-.286V8H11Z" />
      <path class="light-blue" d="M4.5,7h-3L1,7.5v3l.5.5h3l.5-.5v-3ZM4,10H2V8H4Z" />
      <path class="light-blue" d="M13.5,7l.5.5v.551A3.443,3.443,0,0,0,13.5,8a3.373,3.373,0,0,0-.5.057V8H11v.057A3.373,3.373,0,0,0,10.5,8a3.443,3.443,0,0,0-.5.051V7.5l.5-.5Z" />
    </g>
    <path class="light-blue-10" d="M1.5,2.5v3h12v-3Z" />
    <path class="light-blue" d="M13.5,2H1.5L1,2.5v3l.5.5h12l.5-.5v-3ZM13,5H2V3H13Z" />
    <path class="light-defaultgrey-10" d="M15.5,11.5a1.99,1.99,0,0,1-.148.75l-.138.265c-.2.331-3.214,2.81-3.214,2.81s-3.018-2.479-3.214-2.81l-.138-.265A1.993,1.993,0,0,1,12,10.19a1.992,1.992,0,0,1,3.5,1.31Z" />
    <path class="light-defaultgrey" d="M13.5,9a2.478,2.478,0,0,0-1.5.509A2.491,2.491,0,0,0,8,11.5a2.525,2.525,0,0,0,.2.979l.152.293a33.618,33.618,0,0,0,3.327,2.94l.317.261.317-.261a31.686,31.686,0,0,0,3.342-2.968l.156-.306A2.5,2.5,0,0,0,13.5,9ZM14.9,12.047l-.1.192c-.167.218-1.5,1.364-2.8,2.438-1.3-1.074-2.63-2.217-2.771-2.39l-.117-.224a1.493,1.493,0,0,1,2.512-1.544l.376.43.376-.43A1.494,1.494,0,0,1,14.9,12.047Z" />
  </g>
</svg>
