<svg xmlns="http://www.w3.org/2000/svg" viewBox="0 0 16 16">
  <defs>
    <style>.canvas{fill: none; opacity: 0;}.light-defaultgrey-10{fill: #212121; opacity: 0.1;}.light-defaultgrey{fill: #212121; opacity: 1;}.light-blue{fill: #005dba; opacity: 1;}</style>
  </defs>
  <title>IconLightConstantPrivate</title>
  <g id="canvas" class="canvas">
    <path class="canvas" d="M16,16H0V0H16Z" />
  </g>
  <g id="level-1">
    <path class="light-defaultgrey-10" d="M9,11.5H8l-1,0H2.5v-8h9V7.419A2.991,2.991,0,0,0,10,10v.086l-1,1Z" />
    <path class="light-defaultgrey" d="M9,12H2.5L2,11.5v-8L2.5,3h9l.5.5V7.184a2.989,2.989,0,0,0-1,.6V4H3v7H9.086L9,11.086Z" />
    <path class="light-blue" d="M9,7H5V6H9ZM9,8H5V9H9Z" />
    <path class="light-defaultgrey-10" d="M15.5,11.5v4h-5v-4Z" />
    <path class="light-defaultgrey" d="M15.5,11H15V10a2,2,0,0,0-4,0v1h-.5l-.5.5v4l.5.5h5l.5-.5v-4ZM12,10a1,1,0,0,1,2,0v1H12Zm3,5H11V12h4Z" />
  </g>
</svg>
