<svg xmlns="http://www.w3.org/2000/svg" viewBox="0 0 16 16">
  <defs>
    <style>.canvas{fill: none; opacity: 0;}.light-purple-10{fill: #6936aa; opacity: 0.1;}.light-purple{fill: #6936aa; opacity: 1;}.light-defaultgrey{fill: #212121; opacity: 1;}.light-defaultgrey-10{fill: #212121; opacity: 0.1;}</style>
  </defs>
  <title>IconLightDelegateProtected</title>
  <g id="canvas" class="canvas">
    <path class="canvas" d="M16,16H0V0H16Z" />
  </g>
  <g id="level-1">
    <path class="light-purple-10" d="M14.5,4.5V9.686l-.493-.072L12.963,7.5H10.824L9.779,9.614l-2.334.339-.659,2.036L8.336,13.5H1.5v-9Z" />
    <path class="light-purple" d="M8.473,13.634,7.823,13H4V5h8V7.5h.963L13,7.574V5h1V9.6l.007.014L15,9.758V4.5L14.5,4H1.5L1,4.5v9l.5.5H8.41ZM3,13H2V5H3Z" />
    <path class="light-defaultgrey" d="M11,2.5V4H10V3H6V4H5V2.5L5.5,2h5Z" />
    <path class="light-defaultgrey-10" d="M13.808,13.07l.427,2.488L12,14.383,9.766,15.558l.426-2.488L8.384,11.308l2.5-.363L12,8.681l1.117,2.264,2.5.363Z" />
    <path class="light-defaultgrey" d="M15.964,11.666l-.276-.853-2.238-.326-1-2.028h-.9l-1,2.028-2.238.326-.276.853,1.619,1.578-.383,2.229L10,16l2-1.053L14,16l.726-.527-.383-2.229Zm-2.393,2.978-1.338-.7h-.465l-1.339.7.256-1.49-.144-.443L9.458,11.656l1.5-.217.376-.273L12,9.81l.669,1.356.376.273,1.5.217-1.083,1.055-.144.443Z" />
  </g>
</svg>
