<svg xmlns="http://www.w3.org/2000/svg" viewBox="0 0 16 16">
  <defs>
    <style>.canvas{fill: none; opacity: 0;}.light-purple-10{fill: #6936aa; opacity: 0.1;}.light-purple{fill: #6936aa; opacity: 1;}.light-defaultgrey{fill: #212121; opacity: 1;}.light-defaultgrey-10{fill: #212121; opacity: 0.1;}</style>
  </defs>
  <title>IconLightDelegateInternal</title>
  <g id="canvas" class="canvas">
    <path class="canvas" d="M16,16H0V0H16Z" />
  </g>
  <g id="level-1">
    <path class="light-purple-10" d="M7.651,13.5H1.5v-9h13V8.163a3.321,3.321,0,0,0-2.5.181A3.468,3.468,0,0,0,10.5,8,3.5,3.5,0,0,0,7,11.5a3.6,3.6,0,0,0,.316,1.438l.182.347A1.46,1.46,0,0,0,7.651,13.5Z" />
    <path class="light-purple" d="M7.5,13.285,7.349,13H4V5h8V8.344a3.453,3.453,0,0,1,1-.287V5h1V8.051a3.44,3.44,0,0,1,1,.3V4.5L14.5,4H1.5L1,4.5v9l.5.5H8.143A3.149,3.149,0,0,1,7.5,13.285ZM3,13H2V5H3Z" />
    <path class="light-defaultgrey" d="M11,2.5V4H10V3H6V4H5V2.5L5.5,2h5Z" />
    <path class="light-defaultgrey-10" d="M15.5,11.5a1.99,1.99,0,0,1-.148.75l-.138.265c-.2.331-3.214,2.81-3.214,2.81s-3.018-2.479-3.214-2.81l-.138-.265A1.993,1.993,0,0,1,12,10.19a1.992,1.992,0,0,1,3.5,1.31Z" />
    <path class="light-defaultgrey" d="M13.5,9a2.478,2.478,0,0,0-1.5.509A2.491,2.491,0,0,0,8,11.5a2.525,2.525,0,0,0,.2.979l.152.293a33.618,33.618,0,0,0,3.327,2.94l.317.261.317-.261a31.686,31.686,0,0,0,3.342-2.968l.156-.306A2.5,2.5,0,0,0,13.5,9ZM14.9,12.047l-.1.192c-.167.218-1.5,1.364-2.8,2.438-1.3-1.074-2.63-2.217-2.771-2.39l-.117-.224a1.493,1.493,0,0,1,2.512-1.544l.376.43.376-.43A1.494,1.494,0,0,1,14.9,12.047Z" />
  </g>
</svg>
