<svg xmlns="http://www.w3.org/2000/svg" viewBox="0 0 16 16">
  <defs>
    <style>.canvas{fill: none; opacity: 0;}.light-purple-10{fill: #6936aa; opacity: 0.1;}.light-purple{fill: #6936aa; opacity: 1;}.light-defaultgrey{fill: #212121; opacity: 1;}.light-defaultgrey-10{fill: #212121; opacity: 0.1;}</style>
  </defs>
  <title>IconLightDelegatePrivate</title>
  <g id="canvas" class="canvas">
    <path class="canvas" d="M16,16H0V0H16Z" />
  </g>
  <g id="level-1">
    <path class="light-purple-10" d="M14.5,4.5V7.417a3.013,3.013,0,0,0-.561-.252c-.074-.025-.147-.049-.223-.069s-.137-.032-.207-.045A2.852,2.852,0,0,0,13,7a3,3,0,0,0-3,3v.086l-1,1V13.5H1.5v-9Z" />
    <path class="light-purple" d="M9,13H4V5h8V7.184A2.966,2.966,0,0,1,13,7V5h1V7.184a2.989,2.989,0,0,1,1,.6V4.5L14.5,4H1.5L1,4.5v9l.5.5H9ZM3,13H2V5H3Z" />
    <path class="light-defaultgrey" d="M11,2.5V4H10V3H6V4H5V2.5L5.5,2h5Z" />
    <path class="light-defaultgrey-10" d="M15.5,11.5v4h-5v-4Z" />
    <path class="light-defaultgrey" d="M15.5,11H15V10a2,2,0,0,0-4,0v1h-.5l-.5.5v4l.5.5h5l.5-.5v-4ZM12,10a1,1,0,0,1,2,0v1H12Zm3,5H11V12h4Z" />
  </g>
</svg>
