<svg xmlns="http://www.w3.org/2000/svg" viewBox="0 0 16 16">
  <defs>
    <style>.canvas{fill: none; opacity: 0;}.light-defaultgrey-10{fill: #212121; opacity: 0.1;}.light-defaultgrey{fill: #212121; opacity: 1;}.light-yellow-10{fill: #996f00; opacity: 0.1;}.light-yellow{fill: #996f00; opacity: 1;}.cls-1{opacity:0.75;}</style>
  </defs>
  <title>IconLightEnumerationInternal</title>
  <g id="canvas" class="canvas">
    <path class="canvas" d="M16,16H0V0H16Z" />
  </g>
  <g id="level-1">
    <path class="light-defaultgrey-10" d="M15.5,11.527a1.99,1.99,0,0,1-.148.75l-.138.266c-.2.33-3.214,2.809-3.214,2.809s-3.018-2.479-3.214-2.809l-.138-.266A1.993,1.993,0,0,1,12,10.217a1.992,1.992,0,0,1,3.5,1.31Z" />
    <path class="light-defaultgrey" d="M15.659,12.771l.156-.306A2.492,2.492,0,0,0,12,9.536a2.491,2.491,0,0,0-4,1.991,2.54,2.54,0,0,0,.2.979l.152.294a33.652,33.652,0,0,0,3.327,2.939L12,16l.317-.261M14.9,12.074l-.1.193c-.167.217-1.5,1.363-2.8,2.437-1.3-1.074-2.63-2.217-2.771-2.39l-.117-.224a1.493,1.493,0,0,1,2.512-1.544l.376.431.376-.431A1.494,1.494,0,0,1,14.9,12.074Z" />
    <path class="light-yellow-10" d="M7.525,13.357H1.5V7.643h8v.548A3.492,3.492,0,0,0,7,11.527a3.605,3.605,0,0,0,.316,1.439l.182.346Z" />
    <path class="light-yellow" d="M3.5,11H7.053A3.524,3.524,0,0,0,7,11.527,3.18,3.18,0,0,0,7.051,12H3.5Zm0-1H7.366c.041-.084.086-.166.134-.247V9h-4Zm4,3.312L7.334,13H2V8H9v.378a3.44,3.44,0,0,1,1-.3V7.5L9.5,7h-8L1,7.5v6l.5.5H8.114A3.027,3.027,0,0,1,7.5,13.312Z" />
    <g class="cls-1">
      <path class="light-yellow-10" d="M9.5,7h-3V2.643h8V8.191a3.45,3.45,0,0,0-1-.164,3.488,3.488,0,0,0-1.461.33h-.078a3.488,3.488,0,0,0-1.461-.33,3.443,3.443,0,0,0-.5.051V7.5Z" />
      <path class="light-yellow" d="M8.5,6h4V7h-4Zm0-1h4V4h-4Zm6-3h-8L6,2.5V7H7V3h7V8.087a3.607,3.607,0,0,1,1,.291V2.5Z" />
    </g>
  </g>
</svg>
