<svg xmlns="http://www.w3.org/2000/svg" viewBox="0 0 16 16">
  <defs>
    <style>.canvas{fill: none; opacity: 0;}.light-yellow-10{fill: #996f00; opacity: 0.1;}.light-yellow{fill: #996f00; opacity: 1;}.light-defaultgrey-10{fill: #212121; opacity: 0.1;}.light-defaultgrey{fill: #212121; opacity: 1;}.cls-1{opacity:0.75;}</style>
  </defs>
  <title>IconLightEnumerationSealed</title>
  <g id="canvas" class="canvas">
    <path class="canvas" d="M16,16H0V0H16Z" />
  </g>
  <g id="level-1">
    <path class="light-yellow-10" d="M8.087,13.357H1.5V7.643h8V9.17a4.413,4.413,0,0,0-1.413,4.187Z" />
    <path class="light-yellow" d="M8.276,14H1.5L1,13.5v-6L1.5,7h8l.5.5V8.762a4.5,4.5,0,0,0-1,.944V8H2v5H8.051A4.485,4.485,0,0,0,8.276,14ZM3.5,12h4V11h-4Zm4-3h-4v1h4Z" />
    <g class="cls-1">
      <path class="light-yellow" d="M12.5,7h-4V6h4Zm0-3h-4V5h4Zm2-2h-8L6,2.5V7H7V3h7V8H12.5a4.448,4.448,0,0,1,2.33.67L15,8.5v-6ZM10,8.762A4.474,4.474,0,0,1,12.5,8H10Z" />
      <path class="light-yellow-10" d="M9.5,7h-3V2.643h8V8.357h-.245a4.492,4.492,0,0,0-3.51,0H10V7.5Z" />
    </g>
    <path class="light-defaultgrey-10" d="M12.5,9.5a3,3,0,1,1-3,3A3,3,0,0,1,12.5,9.5Z" />
    <path class="light-defaultgrey" d="M9,12.5A3.5,3.5,0,1,0,12.5,9,3.5,3.5,0,0,0,9,12.5Zm6,0a2.486,2.486,0,0,1-.416,1.377l-3.461-3.461A2.5,2.5,0,0,1,15,12.5Zm-5,0a2.486,2.486,0,0,1,.416-1.377l3.461,3.461A2.5,2.5,0,0,1,10,12.5Z" />
  </g>
</svg>
