<svg xmlns="http://www.w3.org/2000/svg" viewBox="0 0 16 16">
  <defs>
    <style>.canvas{fill: none; opacity: 0;}.light-defaultgrey-10{fill: #212121; opacity: 0.1;}.light-defaultgrey{fill: #212121; opacity: 1;}.light-yellow-10{fill: #996f00; opacity: 0.1;}.light-yellow{fill: #996f00; opacity: 1;}</style>
  </defs>
  <title>IconLightEventProtected</title>
  <g id="canvas" class="canvas">
    <path class="canvas" d="M16,16H0V0H16Z" />
  </g>
  <g id="level-1">
    <path class="light-defaultgrey-10" d="M13.844,13.07l.426,2.488-2.234-1.175L9.8,15.558l.427-2.488L8.42,11.308l2.5-.363,1.118-2.264,1.117,2.264,2.5.363Z" />
    <path class="light-defaultgrey" d="M16,11.666l-.276-.853-2.239-.326-1-2.028h-.9l-1,2.028-2.238.326-.277.853L9.69,13.244l-.382,2.229.725.527,2-1.053,2,1.053.726-.527-.383-2.229Zm-2.394,2.978-1.337-.7H11.8l-1.339.7.256-1.49-.145-.443L9.494,11.656l1.5-.217.376-.273.67-1.356.669,1.356.376.273,1.5.217L13.5,12.711l-.144.443Z" />
    <path class="light-yellow-10" d="M7.349,10.652,3.5,14.5H2l3.5-6H2l4-7h5.387L7,6.5h4.5L8.173,9.828l-.585.085Z" />
    <path class="light-yellow" d="M7.588,9.913,9,9.707l1.692-1.692.275-.556h.281l.606-.6L11.5,6H8.1l3.659-4.17L11.388,1H6l-.434.252-4,7L2,9H4.63L1.568,14.248,2,15H3.5l.354-.146L7.01,11.7ZM3.293,14H2.871L5.932,8.752,5.5,8H2.862L6.29,2h3.994L6.624,6.17,7,7h3.293Z" />
  </g>
</svg>
