<svg xmlns="http://www.w3.org/2000/svg" viewBox="0 0 16 16">
  <defs>
    <style>.canvas{fill: none; opacity: 0;}.light-defaultgrey-10{fill: #212121; opacity: 0.1;}.light-defaultgrey{fill: #212121; opacity: 1;}.light-yellow-10{fill: #996f00; opacity: 0.1;}.light-yellow{fill: #996f00; opacity: 1;}</style>
  </defs>
  <title>IconLightEventInternal</title>
  <g id="canvas" class="canvas">
    <path class="canvas" d="M16,16H0V0H16Z" />
  </g>
  <g id="level-1">
    <path class="light-defaultgrey-10" d="M15.5,11.5a1.99,1.99,0,0,1-.148.75l-.138.265c-.2.331-3.214,2.81-3.214,2.81s-3.018-2.479-3.214-2.81l-.138-.265A1.993,1.993,0,0,1,12,10.19a1.992,1.992,0,0,1,3.5,1.31Z" />
    <path class="light-defaultgrey" d="M13.5,9a2.478,2.478,0,0,0-1.5.509A2.491,2.491,0,0,0,8,11.5a2.543,2.543,0,0,0,.2.979l.152.293a33.618,33.618,0,0,0,3.327,2.94l.317.261.317-.261a31.686,31.686,0,0,0,3.342-2.968l.156-.306A2.5,2.5,0,0,0,13.5,9ZM14.9,12.047l-.1.192c-.167.218-1.5,1.364-2.8,2.438-1.3-1.074-2.63-2.217-2.771-2.39l-.117-.224a1.493,1.493,0,0,1,2.512-1.544l.376.43.376-.43A1.494,1.494,0,0,1,14.9,12.047Z" />
    <path class="light-yellow-10" d="M7.056,10.944,3.5,14.5H2l3.5-6H2l4-7h5.387L7,6.5h4.5L9.944,8.056A3.49,3.49,0,0,0,7.056,10.944Z" />
    <path class="light-yellow" d="M7.02,11.687,3.854,14.854,3.5,15H2l-.432-.752L4.63,9H2l-.434-.748,4-7L6,1h5.388l.375.83L8.1,6h3.4l.354.854L10.686,8.021c-.062,0-.123-.021-.186-.021a3.461,3.461,0,0,0-1.627.42L10.293,7H7l-.376-.83L10.284,2H6.29L2.862,8H5.5l.432.752L2.871,14h.422L7.42,9.873A3.461,3.461,0,0,0,7,11.5C7,11.562,7.017,11.625,7.02,11.687Z" />
  </g>
</svg>
