<svg xmlns="http://www.w3.org/2000/svg" viewBox="0 0 16 16">
  <defs>
    <style>.canvas{fill: none; opacity: 0;}.light-defaultgrey-10{fill: #212121; opacity: 0.1;}.light-defaultgrey{fill: #212121; opacity: 1;}.light-lightblue-10{fill: #0077a0; opacity: 0.1;}.light-lightblue{fill: #0077a0; opacity: 1;}</style>
  </defs>
  <title>IconLightExplodedDoughnutChart</title>
  <g id="canvas">
    <path class="canvas" d="M16,16H0V0H16Z" />
  </g>
  <g id="level-1">
    <path class="light-defaultgrey-10" d="M6.5,1.763V5.275A2.485,2.485,0,0,0,4.275,7.5H.763A5.989,5.989,0,0,1,6.5,1.763ZM10.725,9.5A2.485,2.485,0,0,1,8.5,11.725v3.512A5.989,5.989,0,0,0,14.237,9.5Zm-6.45,0H.763A5.989,5.989,0,0,0,6.5,15.237V11.725A2.485,2.485,0,0,1,4.275,9.5Z" />
    <path class="light-defaultgrey" d="M14.237,9H10.725l-.5.45A2,2,0,0,1,8.45,11.228l-.45.5v3.512l.521.5a6.527,6.527,0,0,0,6.216-6.216ZM9,14.691V12.142A3,3,0,0,0,11.142,10h2.549A5.535,5.535,0,0,1,9,14.691ZM4.772,9.45,4.275,9H.763l-.5.521a6.527,6.527,0,0,0,6.216,6.216l.521-.5V11.725l-.45-.5A2,2,0,0,1,4.772,9.45ZM6,14.691A5.535,5.535,0,0,1,1.309,10H3.858A3,3,0,0,0,6,12.142ZM.263,7.479.763,8H4.275l.5-.45A1.994,1.994,0,0,1,6.55,5.773l.45-.5V1.763l-.521-.5A6.527,6.527,0,0,0,.263,7.479ZM6,4.858A3,3,0,0,0,3.858,7H1.309A5.533,5.533,0,0,1,6,2.309Z" />
    <path class="light-lightblue-10" d="M9.5.763A5.989,5.989,0,0,1,15.237,6.5H11.725A2.485,2.485,0,0,0,9.5,4.275Z" />
    <path class="light-lightblue" d="M15.237,7H11.725l-.5-.45A1.994,1.994,0,0,0,9.45,4.773L9,4.275V.763l.521-.5a6.527,6.527,0,0,1,6.216,6.216Zm-3.1-1h2.549A5.533,5.533,0,0,0,10,1.309V3.858A3,3,0,0,1,12.142,6Z" />
  </g>
</svg>
