<svg xmlns="http://www.w3.org/2000/svg" viewBox="0 0 16 16">
  <defs>
    <style>.canvas{fill: none; opacity: 0;}.light-blue-10{fill: #005dba; opacity: 0.1;}.light-blue{fill: #005dba; opacity: 1;}.light-defaultgrey-10{fill: #212121; opacity: 0.1;}.light-defaultgrey{fill: #212121; opacity: 1;}.cls-1{opacity:0.75;}</style>
  </defs>
  <title>IconLightFieldInternal</title>
  <g id="canvas" class="canvas">
    <path class="canvas" d="M16,16H0V0H16Z" />
  </g>
  <g id="level-1">
    <g class="cls-1">
      <path class="light-blue-10" d="M7.152,12.43,4.823,13.721,1.5,10.215V6.244L9.808,1.629,13.5,5.34,13,8.057a3.453,3.453,0,0,0-1,.287A3.468,3.468,0,0,0,10.5,8,3.5,3.5,0,0,0,7,11.5,3.394,3.394,0,0,0,7.152,12.43Z" />
      <path class="light-blue" d="M7.5,13.285c.013.022.027.045.045.072L5.435,14.528l-.6-.084L1.146,10.752,1,10.4V6.244l.257-.437L9.565,1.191l.6.084,3.692,3.693L14,5.321v2.73A3.429,3.429,0,0,0,13.5,8a3.388,3.388,0,0,0-.5.057V5.528L9.721,2.249,2,6.538v3.653l2.692,2.692V9.608h1v3.633l1.46-.811a4.244,4.244,0,0,0,.164.508Z" />
    </g>
    <path class="light-blue-10" d="M13.418,5.22,5.239,9.764,1.6,6.129l8.18-4.545Z" />
    <path class="light-blue" d="M5.477,10.194l-.586-.082L1.256,6.477,1.365,5.7,9.543,1.154l.587.083,3.636,3.635-.108.778ZM2.455,6.285,5.324,9.154,12.59,5.118,9.721,2.249Z" />
    <path class="light-defaultgrey-10" d="M15.5,11.5a1.99,1.99,0,0,1-.148.75l-.138.265c-.2.331-3.214,2.81-3.214,2.81s-3.018-2.479-3.214-2.81l-.138-.265A1.993,1.993,0,0,1,12,10.19a1.992,1.992,0,0,1,3.5,1.31Z" />
    <path class="light-defaultgrey" d="M13.5,9a2.478,2.478,0,0,0-1.5.509A2.491,2.491,0,0,0,8,11.5a2.525,2.525,0,0,0,.2.979l.152.293a33.618,33.618,0,0,0,3.327,2.94l.317.261.317-.261a31.686,31.686,0,0,0,3.342-2.968l.156-.306A2.5,2.5,0,0,0,13.5,9ZM14.9,12.047l-.1.192c-.167.218-1.5,1.364-2.8,2.438-1.3-1.074-2.63-2.217-2.771-2.39l-.117-.224a1.493,1.493,0,0,1,2.512-1.544l.376.43.376-.43A1.494,1.494,0,0,1,14.9,12.047Z" />
  </g>
</svg>
