<svg xmlns="http://www.w3.org/2000/svg" viewBox="0 0 16 16">
  <defs>
    <style>.canvas{fill: none; opacity: 0;}.light-blue-10{fill: #005dba; opacity: 0.1;}.light-blue{fill: #005dba; opacity: 1;}.light-defaultgrey-10{fill: #212121; opacity: 0.1;}.light-defaultgrey{fill: #212121; opacity: 1;}.cls-1{opacity:0.75;}</style>
  </defs>
  <title>IconLightFieldPrivate</title>
  <g id="canvas" class="canvas">
    <path class="canvas" d="M16,16H0V0H16Z" />
  </g>
  <g id="level-1">
    <g class="cls-1">
      <path class="light-blue-10" d="M9,11.975,5.192,14.09,1.5,10.4V6.244L9.808,1.629,13.5,5.321V7.049A2.649,2.649,0,0,0,13,7h0a3,3,0,0,0-3,3v.086l-1,1v.889Z" />
      <path class="light-blue" d="M9,11.4v1.145l-3.565,1.98-.6-.084L1.146,10.752,1,10.4V6.244l.257-.437L9.565,1.191l.6.084,3.692,3.693L14,5.321V7.184A2.962,2.962,0,0,0,13,7V5.528L9.721,2.249,2,6.538v3.653l2.692,2.692V9.608h1v3.633Z" />
    </g>
    <path class="light-blue-10" d="M13.418,5.22,5.239,9.764,1.6,6.129l8.18-4.545Z" />
    <path class="light-blue" d="M5.477,10.194l-.586-.082L1.256,6.477,1.365,5.7,9.543,1.154l.587.083,3.636,3.635-.108.778ZM2.455,6.285,5.324,9.154,12.59,5.118,9.721,2.249Z" />
    <path class="light-defaultgrey-10" d="M15.5,11.5v4h-5v-4Z" />
    <path class="light-defaultgrey" d="M15.5,11H15V10a2,2,0,0,0-4,0v1h-.5l-.5.5v4l.5.5h5l.5-.5v-4ZM12,10a1,1,0,0,1,2,0v1H12Zm3,5H11V12h4Z" />
  </g>
</svg>
