<svg xmlns="http://www.w3.org/2000/svg" viewBox="0 0 16 16">
  <defs>
    <style>.canvas{fill: none; opacity: 0;}.light-blue{fill: #005dba; opacity: 1;}.light-blue-10{fill: #005dba; opacity: 0.1;}.light-defaultgrey-10{fill: #212121; opacity: 0.1;}.light-defaultgrey{fill: #212121; opacity: 1;}.cls-1{opacity:0.75;}</style>
  </defs>
  <title>IconLightInterfaceProtected</title>
  <g id="canvas" class="canvas">
    <path class="canvas" d="M16,16H0V0H16Z" />
  </g>
  <g id="level-1">
    <g class="cls-1">
      <path class="light-blue" d="M8.5,6V7h-4V6Z" />
    </g>
    <path class="light-blue-10" d="M4.5,6.5a2,2,0,1,1-2-2A2,2,0,0,1,4.5,6.5Zm4,0a3,3,0,1,1,5.158,2.077l-.552-1.118H10.967l-.838,1.7A2.989,2.989,0,0,1,8.5,6.5Z" />
    <path class="light-blue" d="M2.5,4A2.5,2.5,0,1,0,5,6.5,2.5,2.5,0,0,0,2.5,4Zm0,4A1.5,1.5,0,1,1,4,6.5,1.5,1.5,0,0,1,2.5,8ZM9.922,9.573l-.048.007a3.5,3.5,0,1,1,4.014-.536l-.472-.958A2.476,2.476,0,0,0,14,6.5a2.5,2.5,0,1,0-3.65,2.207Z" />
    <path class="light-defaultgrey-10" d="M13.844,13.07l.426,2.488-2.234-1.175L9.8,15.558l.427-2.488L8.42,11.308l2.5-.363,1.118-2.264,1.117,2.264,2.5.363Z" />
    <path class="light-defaultgrey" d="M16,11.666l-.276-.853-2.239-.326-1-2.028h-.9l-1,2.028-2.238.326-.277.853L9.69,13.244l-.382,2.229.725.527,2-1.053,2,1.053.726-.527-.383-2.229Zm-2.394,2.978-1.337-.7H11.8l-1.339.7.256-1.49-.145-.443L9.494,11.656l1.5-.217.376-.273.67-1.356.669,1.356.376.273,1.5.217L13.5,12.711l-.144.443Z" />
  </g>
</svg>
