<svg xmlns="http://www.w3.org/2000/svg" viewBox="0 0 16 16">
  <defs>
    <style>.canvas{fill: none; opacity: 0;}.light-defaultgrey{fill: #212121; opacity: 1;}.light-defaultgrey-10{fill: #212121; opacity: 0.1;}</style>
  </defs>
  <title>IconLightNamespaceInternal</title>
  <g id="canvas" class="canvas">
    <path class="canvas" d="M16,16H0V0H16Z" />
  </g>
  <g id="level-1">
    <path class="light-defaultgrey" d="M11.092,2.909,11,2.9V2l.1,0a2.062,2.062,0,0,1,1.478.543,2.206,2.206,0,0,1,.5,1.586V6.163c0,.9.314,1.368.959,1.438l.087.009v.453a2.987,2.987,0,0,0-1.267.01c.034-.016.06-.044.1-.057a1.741,1.741,0,0,1-.888-1.786V4.266a1.784,1.784,0,0,0-.229-1.025A.94.94,0,0,0,11.092,2.909ZM3.421,2.546a2.206,2.206,0,0,0-.5,1.586V6.163c0,.9-.314,1.368-.959,1.438l-.087.009v.78l.088.009a.914.914,0,0,1,.709.406,1.948,1.948,0,0,1,.249,1.079v2a2.187,2.187,0,0,0,.5,1.577A2.079,2.079,0,0,0,4.9,14L5,14v-.9l-.1,0a1.246,1.246,0,0,1-.463-.088.7.7,0,0,1-.29-.24,1.071,1.071,0,0,1-.164-.417,3.406,3.406,0,0,1-.053-.646V9.817c0-.982-.318-1.605-.888-1.8A1.741,1.741,0,0,0,3.934,6.23V4.266a1.784,1.784,0,0,1,.229-1.025.94.94,0,0,1,.745-.332L5,2.9V2L4.9,2A2.062,2.062,0,0,0,3.421,2.546Z" />
    <path class="light-defaultgrey-10" d="M15.5,11.5a1.99,1.99,0,0,1-.148.75l-.138.265c-.2.331-3.214,2.81-3.214,2.81s-3.018-2.479-3.214-2.81l-.138-.265A1.993,1.993,0,0,1,12,10.19a1.992,1.992,0,0,1,3.5,1.31Z" />
    <path class="light-defaultgrey" d="M13.5,9a2.478,2.478,0,0,0-1.5.509A2.491,2.491,0,0,0,8,11.5a2.543,2.543,0,0,0,.2.979l.152.293a33.618,33.618,0,0,0,3.327,2.94l.317.261.317-.261a31.686,31.686,0,0,0,3.342-2.968l.156-.306A2.5,2.5,0,0,0,13.5,9ZM14.9,12.047l-.1.192c-.167.218-1.5,1.364-2.8,2.438-1.3-1.074-2.63-2.217-2.771-2.39l-.117-.224a1.493,1.493,0,0,1,2.512-1.544l.376.43.376-.43A1.494,1.494,0,0,1,14.9,12.047Z" />
  </g>
</svg>
