<svg xmlns="http://www.w3.org/2000/svg" viewBox="0 0 16 16">
  <defs>
    <style>.canvas{fill: none; opacity: 0;}.light-defaultgrey{fill: #212121; opacity: 1;}.light-defaultgrey-10{fill: #212121; opacity: 0.1;}</style>
  </defs>
  <title>IconLightNamespacePrivate</title>
  <g id="canvas" class="canvas">
    <path class="canvas" d="M16,16H0V0H16Z" />
  </g>
  <g id="level-1">
    <path class="light-defaultgrey" d="M4.9,2,5,2v.9l-.092,0a.94.94,0,0,0-.745.332,1.784,1.784,0,0,0-.229,1.025V6.23a1.741,1.741,0,0,1-.888,1.786c.57.2.888.819.888,1.8v1.89a3.406,3.406,0,0,0,.053.646,1.071,1.071,0,0,0,.164.417.7.7,0,0,0,.29.24A1.246,1.246,0,0,0,4.9,13.1l.1,0V14l-.1,0a2.079,2.079,0,0,1-1.478-.538,2.187,2.187,0,0,1-.5-1.577v-2a1.948,1.948,0,0,0-.249-1.079A.914.914,0,0,0,1.963,8.4L1.875,8.39V7.61L1.962,7.6c.645-.07.959-.541.959-1.438V4.132a2.206,2.206,0,0,1,.5-1.586A2.062,2.062,0,0,1,4.9,2Zm7.679.538A2.069,2.069,0,0,0,11.1,2L11,2v.9l.093,0A1.357,1.357,0,0,1,11.531,3a.693.693,0,0,1,.29.218A1.174,1.174,0,0,1,12,3.622a2.779,2.779,0,0,1,.064.644v2.9A2.956,2.956,0,0,1,13,7c.027,0,.052.007.079.008V4.132A2.2,2.2,0,0,0,12.578,2.541Z" />
    <path class="light-defaultgrey-10" d="M15.5,11.5v4h-5v-4Z" />
    <path class="light-defaultgrey" d="M15.5,11H15V10a2,2,0,0,0-4,0v1h-.5l-.5.5v4l.5.5h5l.5-.5v-4ZM12,10a1,1,0,0,1,2,0v1H12Zm3,5H11V12h4Z" />
  </g>
</svg>
