<svg xmlns="http://www.w3.org/2000/svg" viewBox="0 0 16 16">
  <defs>
    <style>.canvas{fill: none; opacity: 0;}.light-defaultgrey{fill: #212121; opacity: 1;}.light-green-10{fill: #1f801f; opacity: 0.1;}.light-green{fill: #1f801f; opacity: 1;}.light-defaultgrey-10{fill: #212121; opacity: 0.1;}.cls-1{opacity:0.75;}</style>
  </defs>
  <title>IconLightObjectPrivate</title>
  <g id="canvas" class="canvas">
    <path class="canvas" d="M16,16H0V0H16Z" />
  </g>
  <g id="level-1">
    <g class="cls-1">
      <path class="light-defaultgrey" d="M15,4H12V3.133h3Z" />
      <path class="light-defaultgrey" d="M1,11H7v1H1Z" />
      <path class="light-defaultgrey" d="M10.78,8H5V7h8A2.985,2.985,0,0,0,10.78,8Z" />
    </g>
    <path class="light-green-10" d="M9.5,1.5v3h-8v-3Z" />
    <path class="light-green" d="M9.5,1h-8L1,1.5v3l.5.5h8l.5-.5v-3ZM9,4H2V2H9Z" />
    <path class="light-defaultgrey-10" d="M15.5,11.5v4h-5v-4Z" />
    <path class="light-defaultgrey" d="M15.5,11H15V10a2,2,0,0,0-4,0v1h-.5l-.5.5v4l.5.5h5l.5-.5v-4ZM12,10a1,1,0,0,1,2,0v1H12Zm3,5H11V12h4Z" />
  </g>
</svg>
