<svg xmlns="http://www.w3.org/2000/svg" viewBox="0 0 16 16">
  <defs>
    <style>.canvas{fill: none; opacity: 0;}.light-blue-10{fill: #005dba; opacity: 0.1;}.light-blue{fill: #005dba; opacity: 1;}.light-defaultgrey-10{fill: #212121; opacity: 0.1;}.light-defaultgrey{fill: #212121; opacity: 1;}</style>
  </defs>
  <title>OperatorProtected</title>
  <g id="canvas">
    <path class="canvas" d="M16,16H0V0H16Z" />
  </g>
  <g id="level-1">
    <path class="light-blue-10" d="M1.5,2.5v10h6L6.98,12l-.05-.05L7.24,11l.12-.38.23-.71.19-.03L9.05,9.7l.87-.13,1.05-2.11h.53V2.5Z" />
    <path class="light-blue" d="M3,8V9H6V8Zm0,2v1H6V10ZM5,5V4H4V5H3V6H4V7H5V6H6V5ZM8.87,8,7.78,9.88,9.05,9.7,10.03,8ZM7,5V6h3V5Zm4.5-3H1.5L1,2.5v10l.5.5H8.01l-.51-.5L6.98,12H2V3h9V7.46h1V2.5Z" />
    <path class="light-defaultgrey-10" d="M13.844,13.07l.426,2.488-2.234-1.175L9.8,15.558l.427-2.488L8.42,11.308l2.5-.363,1.118-2.264,1.117,2.264,2.5.363Z" />
    <path class="light-defaultgrey" d="M16,11.666l-.276-.853-2.239-.326-1-2.028h-.9l-1,2.028-2.238.326-.277.853L9.69,13.244l-.382,2.229.725.527,2-1.053,2,1.053.726-.527-.383-2.229Zm-2.394,2.978-1.337-.7H11.8l-1.339.7.256-1.49-.145-.443L9.494,11.656l1.5-.217.376-.273.67-1.356.669,1.356.376.273,1.5.217L13.5,12.711l-.144.443Z" />
  </g>
</svg>
