<svg xmlns="http://www.w3.org/2000/svg" viewBox="0 0 16 16">
  <defs>
    <style>.canvas{fill: none; opacity: 0;}.light-defaultgrey-10{fill: #212121; opacity: 0.1;}.light-defaultgrey{fill: #212121; opacity: 1;}.cls-1{opacity:0.75;}</style>
  </defs>
  <title>IconLightPropertyInternal</title>
  <g id="canvas" class="canvas">
    <path class="canvas" d="M16,16H0V0H16Z" />
  </g>
  <g id="level-1">
    <g class="cls-1">
      <path class="light-defaultgrey-10" d="M7.272,10.176c-1.541,1.535-3.179,3.145-4.195,4.091-.861.75-2.077-.651-1.418-1.4,1.335-1.4,3.981-4.026,5.875-5.874a3.924,3.924,0,0,0,1.4,1.42A3.508,3.508,0,0,0,7.272,10.176Z" />
      <path class="light-defaultgrey" d="M7.042,11.11C5.7,12.444,4.329,13.784,3.418,14.633a1.352,1.352,0,0,1-.892.346,1.5,1.5,0,0,1-1.056-.47,1.444,1.444,0,0,1-.187-1.973c1.383-1.448,4.122-4.167,6.022-6.018a3.9,3.9,0,0,0,.506.9c-1.858,1.817-4.466,4.408-5.791,5.8-.134.153.009.441.158.591a.4.4,0,0,0,.57.087C4.173,12.563,6.755,10,8.567,8.174a3.651,3.651,0,0,0,.37.239A3.485,3.485,0,0,0,7.042,11.11Z" />
    </g>
    <path class="light-defaultgrey" d="M7,5a3.961,3.961,0,0,1,4-4,4.19,4.19,0,0,1,1.441.241L9.559,4.2,11.8,6.441l2.959-2.882A4.19,4.19,0,0,1,15,5a3.959,3.959,0,0,1-1.4,3.037c-.034,0-.066-.01-.1-.01a3.468,3.468,0,0,0-1.5.344,3.4,3.4,0,0,0-3.075.048A3.951,3.951,0,0,1,7,5Z" />
    <path class="light-defaultgrey-10" d="M15.5,11.527a1.99,1.99,0,0,1-.148.75l-.138.266c-.2.33-3.214,2.809-3.214,2.809s-3.018-2.479-3.214-2.809l-.138-.266A1.993,1.993,0,0,1,12,10.217a1.992,1.992,0,0,1,3.5,1.31Z" />
    <path class="light-defaultgrey" d="M13.5,9.027a2.478,2.478,0,0,0-1.5.509,2.491,2.491,0,0,0-4,1.991,2.521,2.521,0,0,0,.2.979l.152.294a33.652,33.652,0,0,0,3.327,2.939L12,16l.317-.261a31.569,31.569,0,0,0,3.342-2.968l.156-.306A2.5,2.5,0,0,0,13.5,9.027ZM14.9,12.074l-.1.193c-.167.217-1.5,1.363-2.8,2.437-1.3-1.074-2.63-2.217-2.771-2.39l-.117-.224a1.493,1.493,0,0,1,2.512-1.544l.376.431.376-.431A1.494,1.494,0,0,1,14.9,12.074Z" />
  </g>
</svg>
