<svg xmlns="http://www.w3.org/2000/svg" viewBox="0 0 16 16">
  <defs>
    <style>.canvas{fill: none; opacity: 0;}.light-defaultgrey-10{fill: #212121; opacity: 0.1;}.light-defaultgrey{fill: #212121; opacity: 1;}.light-red{fill: #c50b17; opacity: 1;}.white{fill: #ffffff; opacity: 1;}.cls-1{opacity:0.75;}</style>
  </defs>
  <title>IconLightReferenceGroupError</title>
  <g id="canvas">
    <path class="canvas" d="M16,16H0V0H16Z" />
  </g>
  <g id="level-1">
    <g class="cls-1">
      <path class="light-defaultgrey-10" d="M10.5,2.5V6H14V7.41l.18.09H15.5v-5Zm-8,1v3h3v-3Z" />
      <path class="light-defaultgrey" d="M10,2V6h1V3h4V7H14v.41l.18.09A4.853,4.853,0,0,1,15,8h1V2ZM2,3V7H6V3ZM5,6H3V4H5ZM6,4.5v1h4v-1Z" />
    </g>
    <path class="light-defaultgrey-10" d="M8.5,6.5V8.42A4.113,4.113,0,0,1,9,8a4.941,4.941,0,0,1,3-1,4.712,4.712,0,0,1,1,.1c.17.03.33.08.5.12V6.5Zm-8,1v3h3v-3Z" />
    <path class="light-defaultgrey" d="M8,6V9a5.469,5.469,0,0,1,.5-.58A4.113,4.113,0,0,1,9,8V7h4v.1c.17.03.33.08.5.12.17.06.34.12.5.19V6ZM0,7v3.97L4,11V7Zm3,3H1V8H3ZM4,8.5v1H7.67A4.322,4.322,0,0,1,8,9V8.5Z" />
    <path class="light-red" d="M12,8a4,4,0,1,0,4,4A4,4,0,0,0,12,8Z" />
    <path class="white" d="M12.707,12l1.147,1.146-.708.708L12,12.707l-1.146,1.147-.708-.708L11.293,12l-1.147-1.146.708-.708L12,11.293l1.146-1.147.708.708Z" />
  </g>
</svg>
