<svg xmlns="http://www.w3.org/2000/svg" viewBox="0 0 16 16">
  <defs>
    <style>.canvas{fill: none; opacity: 0;}.light-defaultgrey-10{fill: #212121; opacity: 0.1;}.light-defaultgrey{fill: #212121; opacity: 1;}</style>
  </defs>
  <title>IconLightStatusHidden</title>
  <g id="canvas" class="canvas">
    <path class="canvas" d="M16,16H0V0H16Z" />
  </g>
  <g id="level-1">
    <path class="light-defaultgrey-10" d="M14,7.5A6.5,6.5,0,1,1,7.5,1,6.5,6.5,0,0,1,14,7.5Z" />
    <path class="light-defaultgrey" d="M8,11V6H7v5Zm.25-6.5a.75.75,0,1,1-.75-.75A.75.75,0,0,1,8.25,4.5Z" />
    <path class="light-defaultgrey" d="M1.085,8.5a6.456,6.456,0,0,0,1.173,2.827l.714-.713A5.447,5.447,0,0,1,2.1,8.5Zm3.3-5.529A5.461,5.461,0,0,1,6.5,2.1V1.085A6.456,6.456,0,0,0,3.673,2.258ZM8.5,2.1a5.461,5.461,0,0,1,2.114.875l.713-.713A6.456,6.456,0,0,0,8.5,1.085ZM1.085,6.5H2.1a5.447,5.447,0,0,1,.876-2.114l-.714-.714A6.472,6.472,0,0,0,1.085,6.5Zm10.943,4.114.714.713A6.456,6.456,0,0,0,13.915,8.5H12.9A5.447,5.447,0,0,1,12.028,10.614ZM13.915,6.5a6.472,6.472,0,0,0-1.173-2.828l-.714.714A5.447,5.447,0,0,1,12.9,6.5ZM3.673,12.742A6.456,6.456,0,0,0,6.5,13.915V12.9a5.461,5.461,0,0,1-2.114-.875ZM8.5,12.9v1.011a6.456,6.456,0,0,0,2.827-1.173l-.713-.713A5.461,5.461,0,0,1,8.5,12.9Z" />
  </g>
</svg>
