<svg xmlns="http://www.w3.org/2000/svg" viewBox="0 0 16 16">
  <defs>
    <style>.canvas{fill: none; opacity: 0;}.light-defaultgrey-10{fill: #212121; opacity: 0.1;}.light-defaultgrey{fill: #212121; opacity: 1;}</style>
  </defs>
  <title>IconLightForceDirectedLayout</title>
  <g id="canvas">
    <path class="canvas" d="M16,16H0V0H16Z" />
  </g>
  <g id="level-1">
    <path class="light-defaultgrey-10" d="M10.5,10.5a4,4,0,1,1-4-4A4,4,0,0,1,10.5,10.5Z" />
    <path class="light-defaultgrey" d="M6.5,15A4.5,4.5,0,1,1,11,10.5,4.505,4.505,0,0,1,6.5,15Zm0-8A3.5,3.5,0,1,0,10,10.5,3.5,3.5,0,0,0,6.5,7Z" />
    <path class="light-defaultgrey-10" d="M14.5,5a3.5,3.5,0,0,1-2.9,3.44A5.5,5.5,0,0,0,7.509,5.1c0-.033-.009-.064-.009-.1a3.5,3.5,0,0,1,7,0Z" />
    <path class="light-defaultgrey" d="M15,5a4,4,0,0,1-3.232,3.922,5.523,5.523,0,0,0-.392-.96A2.993,2.993,0,1,0,8,5c0,.076.024.145.03.22A5.446,5.446,0,0,0,7,5.025L7,5a4,4,0,0,1,8,0Z" />
    <path class="light-defaultgrey-10" d="M6,5.03A5.487,5.487,0,0,0,2.081,7.235,2.948,2.948,0,0,1,1.5,5.5a3,3,0,0,1,3-3,2.946,2.946,0,0,1,1.86.659A4.986,4.986,0,0,0,6,5C6,5.01,6,5.02,6,5.03Z" />
    <path class="light-defaultgrey" d="M6.2,3.68A2.483,2.483,0,0,0,2.406,6.836a5.541,5.541,0,0,0-.627.853A3.491,3.491,0,0,1,4.5,2a3.433,3.433,0,0,1,2.076.717A4.927,4.927,0,0,0,6.2,3.68Z" />
  </g>
</svg>
