<svg xmlns="http://www.w3.org/2000/svg" viewBox="0 0 16 16">
  <defs>
    <style>.canvas{fill: none; opacity: 0;}.light-lightblue-10{fill: #0077a0; opacity: 0.1;}.light-lightblue{fill: #0077a0; opacity: 1;}.light-defaultgrey-10{fill: #212121; opacity: 0.1;}.light-defaultgrey{fill: #212121; opacity: 1;}</style>
  </defs>
  <title>IconLightPolarChart</title>
  <g id="canvas">
    <path class="canvas" d="M16,16H0V0H16Z" />
  </g>
  <g id="level-1">
    <path class="light-lightblue-10" d="M9.49,5.15l.876-2.726a6,6,0,0,1,3.5,2.97L9.5,7.64Z" />
    <path class="light-lightblue-10" d="M6.62,8.775l-4.258,1.55a6,6,0,0,1,.2-4.588l1.984.925Z" />
    <path class="light-lightblue-10" d="M8.11,9.28l.412,4.962a6,6,0,0,1-4.373-1.4L7.142,9.307l.259.264Z" />
    <path class="light-lightblue-10" d="M14.5,8.416a6,6,0,0,1-1.944,4.16L9.151,8.853,9.5,8.708l0-.515Z" />
    <path class="light-lightblue" d="M14.523,7.917l-4.114-.184L14.1,5.839l.215-.673a6.489,6.489,0,0,0-3.793-3.218l-.629.323-.405,1.26L9.5,6.768l1.186-3.694A5.474,5.474,0,0,1,12.269,4.1a5.545,5.545,0,0,1,.906,1.087L9.5,7.078,9.5,8.708l-.844.347,3.529,3.859.707.031A6.491,6.491,0,0,0,15,8.438Zm-1.034,2.561a5.46,5.46,0,0,1-.916,1.376L9.69,8.7l4.267.189A5.462,5.462,0,0,1,13.489,10.478Z" />
    <path class="light-lightblue" d="M7.4,9.571,6.235,8.383,2.682,9.676a5.5,5.5,0,0,1,.143-3.265L5.544,7.679l-2-2.034-.775-.361-.664.241A6.547,6.547,0,0,0,1.5,8.272,6.448,6.448,0,0,0,1.893,10.5l.64.3,3.9-1.417L3.767,12.519l.058.705a6.512,6.512,0,0,0,4.2,1.539c.18,0,.361-.008.543-.023l.457-.539L8.6,9.081ZM6.349,13.5a5.491,5.491,0,0,1-1.481-.734l2.76-3.26.353,4.256A5.477,5.477,0,0,1,6.349,13.5Z" />
    <path class="light-defaultgrey-10" d="M8,8.041l-4.9-5a6.992,6.992,0,0,1,4.88-2Z" />
    <path class="light-defaultgrey" d="M8.477,1.039l-.5-.5A7.5,7.5,0,0,0,2.746,2.688L2.74,3.4l4.9,5L8.5,8.039ZM3.817,3.065a6.495,6.495,0,0,1,3.662-1.5L7.5,6.813Z" />
  </g>
</svg>
