<?xml version="1.0" encoding="UTF-8" standalone="no"?><!DOCTYPE svg PUBLIC "-//W3C//DTD SVG 1.1//EN" "http://www.w3.org/Graphics/SVG/1.1/DTD/svg11.dtd"><svg width="100%" height="100%" viewBox="0 0 16 16" version="1.1" xmlns="http://www.w3.org/2000/svg" xmlns:xlink="http://www.w3.org/1999/xlink" xml:space="preserve" xmlns:serif="http://www.serif.com/" style="fill-rule:evenodd;clip-rule:evenodd;stroke-linejoin:round;stroke-miterlimit:2;"><rect id="Assembly" x="0" y="-0" width="16" height="16" style="fill:none;"/><path d="M11,5l0,10l-10,-0l0,-10l10,-0Zm-8,9l2,-0l-0,-1l1,-0l-0,-4l-1,-0l-0,-1l1,-0l-0,-1l-2,-0l-0,-1l-1,-0l-0,8Zm5,-5l-0,1l2,-0l-0,-2l-1,-0l-0,1l-1,-0Zm-0,1l-1,-0l-0,2l1,-0l-0,-2Zm-0,-1l-0,-1l-1,-0l-0,1l1,-0Zm-0,4l-1,-0l-0,1l1,-0l-0,-1Zm-0,-1l-0,1l1,-0l-0,1l1,-0l-0,-3l-1,-0l-0,1l-1,-0Zm2,-6l-1,-0l-0,1l1,-0l-0,-1Z"/><path d="M3,5l-1,0l0,-2l11,-0l0,11l-2,-0l-0,-1l1,-0l-0,-9l-9,-0l0,1Z"/><path d="M5,3l-1,0l0,-2l11,-0l0,11l-2,-0l-0,-1l1,-0l-0,-9c-0,-0 -9,0 -9,0l-0,1Z"/></svg>