<?xml version="1.0" encoding="UTF-8" standalone="no"?><!DOCTYPE svg PUBLIC "-//W3C//DTD SVG 1.1//EN" "http://www.w3.org/Graphics/SVG/1.1/DTD/svg11.dtd"><svg width="100%" height="100%" viewBox="0 0 16 16" version="1.1" xmlns="http://www.w3.org/2000/svg" xmlns:xlink="http://www.w3.org/1999/xlink" xml:space="preserve" xmlns:serif="http://www.serif.com/" style="fill-rule:evenodd;clip-rule:evenodd;stroke-linejoin:round;stroke-miterlimit:2;"><rect id="ClassStaticProtected" x="-0" y="0" width="16" height="16" style="fill:none;"/><g id="ClassStaticProtected1" serif:id="ClassStaticProtected"><path d="M8.876,13l-1.876,0l-0,-6l-1,-0l-2,2l-3,-3l5,-5l3,3l-2,2l4,-0l2,-2l2,2l-2.5,2.5l-1,-0l-1.5,-1.5l-2,-0l-0,5l0.109,0l-0.109,0.346l0.876,0.654Z"/><path d="M12.534,9.5l0.504,1.496l1.632,-0l0.33,0.979l-1.32,0.924l0.504,1.496l-0.864,0.605l-1.32,-0.924l-1.32,0.924l-0.864,-0.605l0.504,-1.496l-1.32,-0.924l0.33,-0.979l1.632,-0l0.504,-1.496l1.068,0Z"/></g></svg>