<?xml version="1.0" encoding="UTF-8" standalone="no"?><!DOCTYPE svg PUBLIC "-//W3C//DTD SVG 1.1//EN" "http://www.w3.org/Graphics/SVG/1.1/DTD/svg11.dtd"><svg width="100%" height="100%" viewBox="0 0 16 16" version="1.1" xmlns="http://www.w3.org/2000/svg" xmlns:xlink="http://www.w3.org/1999/xlink" xml:space="preserve" xmlns:serif="http://www.serif.com/" style="fill-rule:evenodd;clip-rule:evenodd;stroke-linejoin:round;stroke-miterlimit:2;"><rect id="ClassInternal" x="0" y="0" width="16" height="16" style="fill:none;"/><path d="M8,13l-1,0l0,-6l-1,-0l-2,2l-3,-3l5,-5l3,3l-2,2l4,-0l2,-2l2,2l-3,3l-2,-2l-2,-0l-0,6Zm5.586,-7l-0.586,-0.586c0,0 -1.586,1.586 -1.586,1.586l0.586,0.586l1.586,-1.586Zm-7.586,-3.586l-3.586,3.586c0,-0 1.586,1.586 1.586,1.586l3.586,-3.586l-1.586,-1.586Z"/><path d="M13.412,9.739l1.588,1.059l0,2l-3,2l-3,-2l0,-2l1.588,-1.059l1.412,1.059l1.412,-1.059Z"/></svg>