<?xml version="1.0" encoding="UTF-8" standalone="no"?><!DOCTYPE svg PUBLIC "-//W3C//DTD SVG 1.1//EN" "http://www.w3.org/Graphics/SVG/1.1/DTD/svg11.dtd"><svg width="100%" height="100%" viewBox="0 0 16 16" version="1.1" xmlns="http://www.w3.org/2000/svg" xmlns:xlink="http://www.w3.org/1999/xlink" xml:space="preserve" xmlns:serif="http://www.serif.com/" style="fill-rule:evenodd;clip-rule:evenodd;stroke-linejoin:round;stroke-miterlimit:2;"><rect id="Class" x="0" y="0" width="16" height="16" style="fill:none;"/><path d="M6,7l-2,2l-3,-3l5,-5l3,3l-2,2l4,-0l2,-2l2,2l-3,3l-2,-2l-2,-0l-0,5l3,0l2,-2l2,2l-3,3l-2,-2l-3,0l0,-6l-1,-0Zm-0,-4.586l-3.586,3.586c0,-0 1.586,1.586 1.586,1.586l3.586,-3.586l-1.586,-1.586Zm7.586,3.586l-0.586,-0.586c0,0 -1.586,1.586 -1.586,1.586l0.586,0.586l1.586,-1.586Zm-0,6l-0.586,-0.586c0,0 -1.586,1.586 -1.586,1.586l0.586,0.586l1.586,-1.586Z"/></svg>