<?xml version="1.0" encoding="UTF-8" standalone="no"?><!DOCTYPE svg PUBLIC "-//W3C//DTD SVG 1.1//EN" "http://www.w3.org/Graphics/SVG/1.1/DTD/svg11.dtd"><svg width="100%" height="100%" viewBox="0 0 16 16" version="1.1" xmlns="http://www.w3.org/2000/svg" xmlns:xlink="http://www.w3.org/1999/xlink" xml:space="preserve" xmlns:serif="http://www.serif.com/" style="fill-rule:evenodd;clip-rule:evenodd;stroke-linejoin:round;stroke-miterlimit:2;"><rect id="Constructor" x="0" y="-0" width="16" height="16" style="fill:none;"/><path d="M3,5.5l5,-3l5,3l0,5l-5,3l-5,-3l0,-5Zm8.525,0.281l-3.525,-2.115l-3.525,2.115l3.525,2.16l3.525,-2.16Zm-7.525,0.878l0,3.275l3.5,2.1l0,-3.275l-3.5,-2.1Zm4.5,5.375l3.5,-2.1l-0,-3.275l-3.5,2.1l0,3.275Z"/><path d="M13.777,5.916l-0.554,-0.832l1.5,-1l0.554,0.832l-1.5,1Z"/><path d="M10.447,3.224l-0.894,-0.448l1,-2l0.894,0.448l-1,2Z"/><path d="M2.777,5.084l-0.554,0.832l-1.5,-1l0.554,-0.832l1.5,1Z"/><path d="M6.447,2.776l-0.894,0.448l-1,-2l0.894,-0.448l1,2Z"/><path d="M13.223,10.916l0.554,-0.832l1.5,1l-0.554,0.832l-1.5,-1Z"/><path d="M9.553,13.224l0.894,-0.448l1,2l-0.894,0.448l-1,-2Z"/><path d="M2.223,10.084l0.554,0.832l-1.5,1l-0.554,-0.832l1.5,-1Z"/><path d="M5.553,12.776l0.894,0.448l-1,2l-0.894,-0.448l1,-2Z"/></svg>