<?xml version="1.0" encoding="UTF-8" standalone="no"?><!DOCTYPE svg PUBLIC "-//W3C//DTD SVG 1.1//EN" "http://www.w3.org/Graphics/SVG/1.1/DTD/svg11.dtd"><svg width="100%" height="100%" viewBox="0 0 16 16" version="1.1" xmlns="http://www.w3.org/2000/svg" xmlns:xlink="http://www.w3.org/1999/xlink" xml:space="preserve" xmlns:serif="http://www.serif.com/" style="fill-rule:evenodd;clip-rule:evenodd;stroke-linejoin:round;stroke-miterlimit:2;"><rect id="ConstantProtected" x="0" y="-0" width="16" height="16" style="fill:none;"/><path d="M8.43,10.984l-0.016,0.016l-3.828,-0l-2.586,-2.586l0,-3.828l2.586,-2.586l3.828,-0l2.293,2.293l-1.414,1.414c-0,0 -1.707,-1.707 -1.707,-1.707l-2.172,0c0,0 -1.414,1.414 -1.414,1.414l0,2.172c0,-0 1.414,1.414 1.414,1.414l2.172,0l1.707,-1.707l1.393,1.393l-0.019,0.061l-1.249,1.249l-0.675,-0l-0.313,0.988Z"/><path d="M12.534,9.5l0.504,1.496l1.632,-0l0.33,0.979l-1.32,0.924l0.504,1.496l-0.864,0.605l-1.32,-0.924l-1.32,0.924l-0.864,-0.605l0.504,-1.496l-1.32,-0.924l0.33,-0.979l1.632,-0l0.504,-1.496l1.068,0Z"/></svg>