<?xml version="1.0" encoding="UTF-8" standalone="no"?><!DOCTYPE svg PUBLIC "-//W3C//DTD SVG 1.1//EN" "http://www.w3.org/Graphics/SVG/1.1/DTD/svg11.dtd"><svg width="100%" height="100%" viewBox="0 0 16 16" version="1.1" xmlns="http://www.w3.org/2000/svg" xmlns:xlink="http://www.w3.org/1999/xlink" xml:space="preserve" xmlns:serif="http://www.serif.com/" style="fill-rule:evenodd;clip-rule:evenodd;stroke-linejoin:round;stroke-miterlimit:2;"><rect id="DelegateInternal" x="0" y="0" width="16" height="16" style="fill:none;"/><path d="M9,14l-8,0l0,-10l4,-0l0,-0.707l1.293,-1.293l3.414,0l1.293,1.293l-0,0.707l4,0l-0,5.596l-1,-0.666l0,-3.93l-1,-0l0,3.798l-1,0.75l0,-4.548l-8,-0l-0,8l4,0l-0,0.333l1,0.667Zm-6,-9l-1,-0l-0,8l1,0l-0,-8Zm7,-1l-0,-0.293l-0.707,-0.707l-2.586,0c0,0 -0.707,0.707 -0.707,0.707l-0,0.293l4,-0Z"/><path d="M13.412,9.739l1.588,1.059l-0,2l-3,2l-3,-2l-0,-2l1.588,-1.059l1.412,1.059l1.412,-1.059Z"/></svg>