<?xml version="1.0" encoding="UTF-8" standalone="no"?><!DOCTYPE svg PUBLIC "-//W3C//DTD SVG 1.1//EN" "http://www.w3.org/Graphics/SVG/1.1/DTD/svg11.dtd"><svg width="100%" height="100%" viewBox="0 0 16 16" version="1.1" xmlns="http://www.w3.org/2000/svg" xmlns:xlink="http://www.w3.org/1999/xlink" xml:space="preserve" xmlns:serif="http://www.serif.com/" style="fill-rule:evenodd;clip-rule:evenodd;stroke-linejoin:round;stroke-miterlimit:2;"><rect id="Delegate" x="0" y="0" width="16" height="16" style="fill:none;"/><path d="M15,14l-14,0l0,-10l4,-0l0,-0.707l1.293,-1.293l3.414,0l1.293,1.293l-0,0.707l4,0l0,10Zm-3,-9l-8,-0l-0,8l8,0l0,-8Zm1,8l1,0l0,-8l-1,-0l0,8Zm-10,-8l-1,-0l-0,8l1,0l-0,-8Zm7,-1l-0,-0.293l-0.707,-0.707l-2.586,0c0,0 -0.707,0.707 -0.707,0.707l-0,0.293l4,-0Z"/></svg>