<?xml version="1.0" encoding="UTF-8" standalone="no"?><!DOCTYPE svg PUBLIC "-//W3C//DTD SVG 1.1//EN" "http://www.w3.org/Graphics/SVG/1.1/DTD/svg11.dtd"><svg width="100%" height="100%" viewBox="0 0 16 16" version="1.1" xmlns="http://www.w3.org/2000/svg" xmlns:xlink="http://www.w3.org/1999/xlink" xml:space="preserve" xmlns:serif="http://www.serif.com/" style="fill-rule:evenodd;clip-rule:evenodd;stroke-linejoin:round;stroke-miterlimit:2;"><rect id="Destructor" x="0" y="-0" width="16" height="16" style="fill:none;"/><path d="M6.973,11.973l0.798,2.977l-5.477,-1.12l-1.294,-4.83l3.899,0.798l-0.899,-1.798l1,-1l0,-1l0.634,-0.634l-2.793,-0.572l4.182,-3.709l5.477,1.121l-3.336,2.958l0.836,0.836l1,-0l1,1l0,0.75l3,-1.5l0,5l-5,2.5l0,-2.75l-1,-0l-1,1l-1,-0l-0.027,-0.027Zm4.027,-0.973l-0,1.132l3,-1.5c0,-0 0,-2.764 -0,-2.764l-3,1.5l-0,1.632Zm-7.9,1.974l3.286,0.672c0,0 -0.715,-2.669 -0.715,-2.669l-3.286,-0.673l0.715,2.67Zm4.213,-10.809l-2.312,2.05l3.027,0.62l2.312,-2.05l-3.027,-0.62Z"/><path d="M12.854,5.354l-0.708,-0.708l2,-2l0.708,0.708l-2,2Z"/><path d="M3.277,6.584l-0.554,0.832l-1.5,-1l0.554,-0.832l1.5,1Z"/><rect x="8.5" y="13" width="1" height="2"/></svg>