<?xml version="1.0" encoding="UTF-8" standalone="no"?><!DOCTYPE svg PUBLIC "-//W3C//DTD SVG 1.1//EN" "http://www.w3.org/Graphics/SVG/1.1/DTD/svg11.dtd"><svg width="100%" height="100%" viewBox="0 0 16 16" version="1.1" xmlns="http://www.w3.org/2000/svg" xmlns:xlink="http://www.w3.org/1999/xlink" xml:space="preserve" xmlns:serif="http://www.serif.com/" style="fill-rule:evenodd;clip-rule:evenodd;stroke-linejoin:round;stroke-miterlimit:2;"><rect id="EventPrivate" x="0" y="-0" width="16" height="16" style="fill:none;"/><path d="M13,1l-3.5,4l3.5,-0l-9,8l-3,-0l3,-5l-3,-0l3,-7l9,-0Zm-2.204,1l-6.137,-0l-2.142,5l3.249,-0l-3,5l0.854,0l6.75,-6l-3.074,-0l3.5,-4Z"/><path d="M14,12l1,-0l0,3l-5,-0l0,-3l1,-0l0,-1.707l0.793,-0.793l1.414,-0l0.793,0.793l0,1.707Zm-2,-0l1,-0l0,-1.293l-0.207,-0.207l-0.586,-0c0,-0 -0.207,0.207 -0.207,0.207l-0,1.293Z"/></svg>