<?xml version="1.0" encoding="UTF-8" standalone="no"?><!DOCTYPE svg PUBLIC "-//W3C//DTD SVG 1.1//EN" "http://www.w3.org/Graphics/SVG/1.1/DTD/svg11.dtd"><svg width="100%" height="100%" viewBox="0 0 16 16" version="1.1" xmlns="http://www.w3.org/2000/svg" xmlns:xlink="http://www.w3.org/1999/xlink" xml:space="preserve" xmlns:serif="http://www.serif.com/" style="fill-rule:evenodd;clip-rule:evenodd;stroke-linejoin:round;stroke-miterlimit:2;"><rect id="FieldInternal" x="0" y="-0" width="16" height="16" style="fill:none;"/><path d="M8,11.309l-3.626,1.813l-3.374,-3.937l-0,-3.494l8.626,-4.313l3.374,3.937l0,3.468l-0.103,0.077l-1.076,0.539l-0.895,-0.671l1.074,-0.537l-0,-1.882l-7,3.5l0,1.882l3,-1.5l0,1.118Zm3.704,-5.97l-2.33,-2.717l-7.078,3.539l2.33,2.717l7.078,-3.539Zm-9.704,2.013l0,1.463l2,2.333l-0,-1.463l-2,-2.333Z"/><path d="M13.412,9.725l1.588,1.058l0,2l-3,2l-3,-2l0,-2l1.588,-1.058l1.412,1.058l1.412,-1.058Z"/></svg>