<?xml version="1.0" encoding="UTF-8" standalone="no"?><!DOCTYPE svg PUBLIC "-//W3C//DTD SVG 1.1//EN" "http://www.w3.org/Graphics/SVG/1.1/DTD/svg11.dtd"><svg width="100%" height="100%" viewBox="0 0 16 16" version="1.1" xmlns="http://www.w3.org/2000/svg" xmlns:xlink="http://www.w3.org/1999/xlink" xml:space="preserve" xmlns:serif="http://www.serif.com/" style="fill-rule:evenodd;clip-rule:evenodd;stroke-linejoin:round;stroke-miterlimit:2;"><rect id="FieldPrivate" x="0" y="-0" width="16" height="16" style="fill:none;"/><path d="M10,10.309l-5.626,2.813l-3.374,-3.937l0,-3.494l8.626,-4.313l3.374,3.937l0,3.185l-1.618,-0l0.618,-0.309l-0,-1.882l-7,3.5l0,1.882l6.375,-3.188l-1.375,1.376l0,0.43Zm-8,-2.957l0,1.463l2,2.333l-0,-1.463l-2,-2.333Zm9.704,-2.013l-2.33,-2.717l-7.078,3.539l2.33,2.717l7.078,-3.539Z"/><path d="M14,12l1,-0l0,3l-5,-0l0,-3l1,-0l0,-1.707l0.793,-0.793l1.414,-0l0.793,0.793l0,1.707Zm-2,-0l1,-0l0,-1.293l-0.207,-0.207l-0.586,-0c0,-0 -0.207,0.207 -0.207,0.207l-0,1.293Z"/></svg>