<?xml version="1.0" encoding="UTF-8" standalone="no"?><!DOCTYPE svg PUBLIC "-//W3C//DTD SVG 1.1//EN" "http://www.w3.org/Graphics/SVG/1.1/DTD/svg11.dtd"><svg width="100%" height="100%" viewBox="0 0 16 16" version="1.1" xmlns="http://www.w3.org/2000/svg" xmlns:xlink="http://www.w3.org/1999/xlink" xml:space="preserve" xmlns:serif="http://www.serif.com/" style="fill-rule:evenodd;clip-rule:evenodd;stroke-linejoin:round;stroke-miterlimit:2;"><rect id="FieldProtected" x="0" y="-0" width="16" height="16" style="fill:none;"/><path d="M8.389,11.114l-4.015,2.008l-3.374,-3.937l0,-3.494l8.626,-4.313l3.374,3.937l0,3.185l-1.618,0l0.618,-0.309l-0,-1.882l-7,3.5l0,1.882l5.626,-2.813l-0.354,1.118l-1.529,-0l-0.354,1.118Zm-6.389,-3.762l0,1.463l2,2.333l-0,-1.463l-2,-2.333Zm9.704,-2.013l-2.33,-2.717l-7.078,3.539l2.33,2.717l7.078,-3.539Z"/><path d="M12.534,9.5l0.504,1.496l1.632,-0l0.33,0.979l-1.32,0.924l0.504,1.496l-0.864,0.605l-1.32,-0.924l-1.32,0.924l-0.864,-0.605l0.504,-1.496l-1.32,-0.924l0.33,-0.979l1.632,-0l0.504,-1.496l1.068,0Z"/></svg>