<svg width="16" height="16" viewBox="0 0 16 16" xmlns="http://www.w3.org/2000/svg" fill="currentColor" style="fill-rule:evenodd;clip-rule:evenodd;">
    <g transform="matrix(1,0,0,1,4.94868,7.19767)">
        <path d="M-0.461,4.019C-1.375,4.019 -2.081,3.764 -2.577,3.254C-3.073,2.744 -3.321,2.03 -3.321,1.112L-2.149,1.112C-2.149,1.698 -1.999,2.153 -1.701,2.478C-1.402,2.802 -0.979,2.964 -0.432,2.964C0.099,2.964 0.508,2.803 0.795,2.48C1.083,2.158 1.226,1.702 1.226,1.112L1.226,-4.419L2.398,-4.419L2.398,1.112C2.398,2.034 2.146,2.749 1.642,3.257C1.138,3.765 0.437,4.019 -0.461,4.019ZM-0.954,-3.306L-0.954,-4.419L1.777,-4.419L1.777,-3.306L-0.954,-3.306Z" style="fill-rule:nonzero;"/>
        <path d="M6.435,4.019C5.962,4.019 5.52,3.98 5.108,3.904C4.696,3.828 4.314,3.714 3.962,3.562L4.115,2.378C4.544,2.562 4.96,2.701 5.36,2.797C5.76,2.893 6.15,2.94 6.529,2.94C7.076,2.94 7.482,2.845 7.748,2.653C8.013,2.462 8.146,2.171 8.146,1.78C8.146,1.284 7.892,0.921 7.384,0.69L5.943,0.034C5.377,-0.224 4.942,-0.534 4.639,-0.897C4.336,-1.261 4.185,-1.712 4.185,-2.251C4.185,-2.978 4.404,-3.54 4.841,-3.938C5.279,-4.337 5.898,-4.536 6.699,-4.536C7.257,-4.536 7.752,-4.454 8.181,-4.29C8.611,-4.126 9.025,-3.858 9.423,-3.487L8.603,-2.655C8.259,-2.937 7.938,-3.141 7.639,-3.268C7.34,-3.395 7.029,-3.458 6.705,-3.458C6.302,-3.458 5.991,-3.361 5.77,-3.168C5.549,-2.975 5.439,-2.688 5.439,-2.31C5.439,-2.04 5.511,-1.82 5.656,-1.65C5.8,-1.48 6.013,-1.329 6.294,-1.196L7.513,-0.622C8.13,-0.333 8.599,-0.007 8.919,0.356C9.24,0.72 9.4,1.187 9.4,1.757C9.4,2.511 9.155,3.076 8.665,3.453C8.174,3.83 7.431,4.019 6.435,4.019Z" style="fill-rule:nonzero;"/>
    </g>
</svg>
