<?xml version="1.0" encoding="UTF-8" standalone="no"?><!DOCTYPE svg PUBLIC "-//W3C//DTD SVG 1.1//EN" "http://www.w3.org/Graphics/SVG/1.1/DTD/svg11.dtd"><svg width="100%" height="100%" viewBox="0 0 16 16" version="1.1" xmlns="http://www.w3.org/2000/svg" xmlns:xlink="http://www.w3.org/1999/xlink" xml:space="preserve" xmlns:serif="http://www.serif.com/" style="fill-rule:evenodd;clip-rule:evenodd;stroke-linejoin:round;stroke-miterlimit:2;"><rect id="InternalEnum" x="0" y="0" width="16" height="16" style="fill:none;"/><path d="M9,14l-5,0l0,-12l8,0l-0,7.548l-1.378,-1.033l-1.478,0.985l-3.144,0l0,1l2,-0l-0,1l-2,0l0,1l2,0l-0,0.833l1,0.667Zm1,-10.5l-4,0l0,1l4,-0l0,-1Zm0,4l-4,-0l0,1l4,0l0,-1Zm0,-2l-4,0l0,1l4,0l0,-1Z"/><path d="M13.412,9.739l1.588,1.059l-0,2l-3,2l-3,-2l-0,-2l1.588,-1.059l1.412,1.059l1.412,-1.059Z"/></svg>