<?xml version="1.0" encoding="UTF-8" standalone="no"?><!DOCTYPE svg PUBLIC "-//W3C//DTD SVG 1.1//EN" "http://www.w3.org/Graphics/SVG/1.1/DTD/svg11.dtd"><svg width="100%" height="100%" viewBox="0 0 16 16" version="1.1" xmlns="http://www.w3.org/2000/svg" xmlns:xlink="http://www.w3.org/1999/xlink" xml:space="preserve" xmlns:serif="http://www.serif.com/" style="fill-rule:evenodd;clip-rule:evenodd;stroke-linejoin:round;stroke-miterlimit:2;"><rect id="InterfaceInternal" x="0" y="0" width="16" height="16" style="fill:none;"/><path d="M9.058,9.558l-1.058,-1.058l0,-1l-3,-0l0,0.5l-1,1l-2,0l-1,-1l0,-2l1,-1l2,0l1,1l0,0.5l3,-0l0,-1l2,-2l3,0l2,2l0,3l-0.658,0.658l-0.848,-0.566c0.275,-0.275 0.506,-0.506 0.506,-0.506l-0,-2.172l-1.414,-1.414l-2.172,0c0,0 -1.414,1.414 -1.414,1.414l0,2.172c0,-0 0.501,0.501 0.906,0.906l-0.848,0.566Z"/><path d="M13.412,9.739l1.588,1.059l0,2l-3,2l-3,-2l0,-2l1.588,-1.059l1.412,1.059l1.412,-1.059Z"/></svg>