<?xml version="1.0" encoding="UTF-8" standalone="no"?><!DOCTYPE svg PUBLIC "-//W3C//DTD SVG 1.1//EN" "http://www.w3.org/Graphics/SVG/1.1/DTD/svg11.dtd"><svg width="100%" height="100%" viewBox="0 0 16 16" version="1.1" xmlns="http://www.w3.org/2000/svg" xmlns:xlink="http://www.w3.org/1999/xlink" xml:space="preserve" xmlns:serif="http://www.serif.com/" style="fill-rule:evenodd;clip-rule:evenodd;stroke-linejoin:round;stroke-miterlimit:2;"><rect id="InternalStaticField" x="0" y="-0" width="16" height="16" style="fill:none;"/><path d="M8,11.309l-3.626,1.813l-3.374,-3.937l0,-3.494l8.626,-4.313l3.374,3.937l0,3.483l-0.043,0.033l-1.148,0.574l-1.187,-0.89l-2.622,1.748l-0,1.046Zm-5.554,-5.223l-0.446,0.223l0,0.793l2.184,2.548l0,1.713l0.442,0.515l0.558,-0.279l0,-1.903l6.816,-3.389l-0,-0.622l-0.297,-0.347l-6.94,3.451l-2.317,-2.703Z"/><path d="M13.412,9.739l1.588,1.059l-0,2l-3,2l-3,-2l-0,-2l1.588,-1.059l1.412,1.059l1.412,-1.059Z"/></svg>