<?xml version="1.0" encoding="UTF-8" standalone="no"?><!DOCTYPE svg PUBLIC "-//W3C//DTD SVG 1.1//EN" "http://www.w3.org/Graphics/SVG/1.1/DTD/svg11.dtd"><svg width="100%" height="100%" viewBox="0 0 16 16" version="1.1" xmlns="http://www.w3.org/2000/svg" xmlns:xlink="http://www.w3.org/1999/xlink" xml:space="preserve" xmlns:serif="http://www.serif.com/" style="fill-rule:evenodd;clip-rule:evenodd;stroke-linejoin:round;stroke-miterlimit:2;"><rect id="InternalIndexer" x="0" y="-0" width="16" height="16" style="fill:none;"/><path d="M4,1l-0,2l-1,-0c0,-0 0,8 -0,8l1,0l-0,2l-3,-0l0,-12l3,0Z"/><path d="M11,8.798l0,-5.798l-1,0l-0,-2l3,-0l0,7.798l-1,0.75l-1,-0.75Z"/><rect x="6" y="7" width="2" height="6"/><rect x="6" y="4" width="2" height="2"/><path d="M13.412,9.739l1.588,1.059l-0,2l-3,2l-3,-2l-0,-2l1.588,-1.059l1.412,1.059l1.412,-1.059Z"/></svg>