<?xml version="1.0" encoding="UTF-8" standalone="no"?><!DOCTYPE svg PUBLIC "-//W3C//DTD SVG 1.1//EN" "http://www.w3.org/Graphics/SVG/1.1/DTD/svg11.dtd"><svg width="100%" height="100%" viewBox="0 0 16 16" version="1.1" xmlns="http://www.w3.org/2000/svg" xmlns:xlink="http://www.w3.org/1999/xlink" xml:space="preserve" xmlns:serif="http://www.serif.com/" style="fill-rule:evenodd;clip-rule:evenodd;stroke-linejoin:round;stroke-miterlimit:2;"><rect id="InternalStaticProperty" x="0" y="-0" width="16" height="16" style="fill:none;"/><path d="M12.5,3.5l0.5,0.5l0,2.707l-2.293,2.293l-3.707,-0l-4,4l-1,-0l-1,-1l0,-1l4,-4l0,-3.707l2.293,-2.293l2.707,-0l0.5,0.5l-2.5,2.5l0,1l1,1l1,-0l2.5,-2.5Z"/><path d="M13.412,9.725l1.588,1.058l0,2l-3,2l-3,-2l0,-2l1.588,-1.058l1.412,1.058l1.412,-1.058Z"/></svg>