<?xml version="1.0" encoding="UTF-8" standalone="no"?><!DOCTYPE svg PUBLIC "-//W3C//DTD SVG 1.1//EN" "http://www.w3.org/Graphics/SVG/1.1/DTD/svg11.dtd"><svg width="100%" height="100%" viewBox="0 0 17 17" version="1.1" xmlns="http://www.w3.org/2000/svg" xmlns:xlink="http://www.w3.org/1999/xlink" xml:space="preserve" xmlns:serif="http://www.serif.com/" style="fill-rule:evenodd;clip-rule:evenodd;stroke-linejoin:round;stroke-miterlimit:2;"><rect id="MethodInternal" x="0.184" y="0.856" width="16" height="16" style="fill:none;"/><path d="M8.327,14.285l-1.143,0.571l-6,-3l0,-7l6,-3l6,3l0,4.798l-1,0.75l0,-4.489l-4.5,2.25l0,5.323l0.5,-0.25l0,0.951l0.143,0.096Zm-6.143,-8.37l0,5.323l4.5,2.25l0,-5.323l-4.5,-2.25Zm9.323,-0.78l-4.323,-2.161l-4.323,2.161l4.323,2.162l4.323,-2.162Z"/><path d="M13.596,10.595l1.588,1.059l0,2l-3,2l-3,-2l0,-2l1.589,-1.059l1.411,1.059l1.412,-1.059Z"/></svg>