<?xml version="1.0" encoding="UTF-8" standalone="no"?><!DOCTYPE svg PUBLIC "-//W3C//DTD SVG 1.1//EN" "http://www.w3.org/Graphics/SVG/1.1/DTD/svg11.dtd"><svg width="100%" height="100%" viewBox="0 0 16 16" version="1.1" xmlns="http://www.w3.org/2000/svg" xmlns:xlink="http://www.w3.org/1999/xlink" xml:space="preserve" xmlns:serif="http://www.serif.com/" style="fill-rule:evenodd;clip-rule:evenodd;stroke-linejoin:round;stroke-miterlimit:2;"><rect id="MethodStaticInternal" x="0" y="-0" width="16" height="16" style="fill:none;"/><path d="M8.143,13.429l-1.143,0.571l-6,-3l-0,-7l6,-3l6,3l0,4.798l-1,0.75l-1.378,-1.033l-2.622,1.748l-0,3.07l0.143,0.096Zm-5.681,-9.042l-0.462,0.231l-0,0.656l4.5,2.25l-0,5.108l0.5,0.25l0.5,-0.25l-0,-5.148l4.5,-2.25l0,-0.616l-0.502,-0.251l-4.539,2.269l-4.497,-2.249Z"/><path d="M13.412,9.739l1.588,1.059l-0,2l-3,2l-3,-2l-0,-2l1.588,-1.059l1.412,1.059l1.412,-1.059Z"/></svg>