<?xml version="1.0" encoding="UTF-8" standalone="no"?><!DOCTYPE svg PUBLIC "-//W3C//DTD SVG 1.1//EN" "http://www.w3.org/Graphics/SVG/1.1/DTD/svg11.dtd"><svg width="100%" height="100%" viewBox="0 0 16 16" version="1.1" xmlns="http://www.w3.org/2000/svg" xmlns:xlink="http://www.w3.org/1999/xlink" xml:space="preserve" xmlns:serif="http://www.serif.com/" style="fill-rule:evenodd;clip-rule:evenodd;stroke-linejoin:round;stroke-miterlimit:2;"><rect id="Module" x="0" y="-0" width="16" height="16" style="fill:none;"/><path d="M14,2l0,12l-12,-0l0,-12l12,-0Zm-8,3l-1,-0l0,1l1,-0l0,-1Zm1,-1l1,-0l0,-1l-1,-0l0,1Zm0,1l0,1l1,-0l0,-1l-1,-0Zm-1,-0l1,-0l0,-1l-1,-0l0,1Zm3,1l2,-0l0,-2l-1,-0l0,-1l-1,-0l0,3Zm1,2l1,-0l0,-1l-1,-0l0,1Zm1,2l0,1l1,-0l0,-1l-1,-0Zm1,1l0,1l1,-0l0,-1l-1,-0Zm0,-1l1,-0l0,-1l-1,-0l0,1Zm-1,1l-1,-0l0,1l1,-0l0,-1Zm-5,1l-1,-0l0,1l1,-0l0,-1Zm2,-2l0,1l1,-0l0,-1l-1,-0Zm0,1l-2,-0l0,1l2,-0l0,-1Zm1,-3l0,1l1,-0l0,-1l-1,-0Zm1,1l0,1l1,-0l0,-1l-1,-0Zm-6,-0l-1,-0l0,1l1,-0l0,-1Zm0,-0l1,-0l0,1l1,-0l0,-1l1,-0l0,1l1,-0l0,-2l1,-0l0,-1l-2,-0l0,1l-2,-0l0,-1l-2,-0l0,1l1,-0l0,1Zm-1,4l1,-0l0,-2l-1,-0l0,2Zm10,-10l-1,-0l0,1l1,-0l0,-1Zm-9,1l-1,-0l0,1l1,-0l0,-1Z"/></svg>