<?xml version="1.0" encoding="UTF-8" standalone="no"?><!DOCTYPE svg PUBLIC "-//W3C//DTD SVG 1.1//EN" "http://www.w3.org/Graphics/SVG/1.1/DTD/svg11.dtd"><svg width="100%" height="100%" viewBox="0 0 16 16" version="1.1" xmlns="http://www.w3.org/2000/svg" xmlns:xlink="http://www.w3.org/1999/xlink" xml:space="preserve" xmlns:serif="http://www.serif.com/" style="fill-rule:evenodd;clip-rule:evenodd;stroke-linejoin:round;stroke-miterlimit:2;"><rect id="Namespace" x="0" y="-0" width="16" height="16" style="fill:none;"/><path d="M6,1l-1,-0l-2,2l0,3l-1,1l0,2l1,1l0,3l2,2l1,-0l0,-1.5l-1.5,-1.5l0,-8l1.5,-1.5l0,-1.5"/><path d="M10,1l1,0l2,2l0,3l1,1l0,2l-1,1l0,3l-2,2l-1,0l0,-1.5l1.5,-1.5l0,-8l-1.5,-1.5l0,-1.5"/></svg>