<?xml version="1.0" encoding="UTF-8" standalone="no"?><!DOCTYPE svg PUBLIC "-//W3C//DTD SVG 1.1//EN" "http://www.w3.org/Graphics/SVG/1.1/DTD/svg11.dtd"><svg width="100%" height="100%" viewBox="0 0 16 16" version="1.1" xmlns="http://www.w3.org/2000/svg" xmlns:xlink="http://www.w3.org/1999/xlink" xml:space="preserve" xmlns:serif="http://www.serif.com/" style="fill-rule:evenodd;clip-rule:evenodd;stroke-linejoin:round;stroke-miterlimit:2;"><rect id="PackageRepository" x="0" y="-0" width="16" height="16" style="fill:none;"/><path d="M7,8l0,6l-6,-0l0,-5l1,-1l1.5,-0l0,3l1,-0l0,-3l2.5,-0Z"/><path d="M13,8l1,1l0,5l-6,-0l0,-6l2.5,-0l0,3l1,-0l0,-3l1.5,-0Z"/><path d="M11,1l1,1l0,5l-6,-0l0,-5l1,-1l1.5,-0l0,3l1,-0l0,-3l1.5,-0Z"/></svg>