<?xml version="1.0" encoding="UTF-8" standalone="no"?><!DOCTYPE svg PUBLIC "-//W3C//DTD SVG 1.1//EN" "http://www.w3.org/Graphics/SVG/1.1/DTD/svg11.dtd"><svg width="100%" height="100%" viewBox="0 0 16 16" version="1.1" xmlns="http://www.w3.org/2000/svg" xmlns:xlink="http://www.w3.org/1999/xlink" xml:space="preserve" xmlns:serif="http://www.serif.com/" style="fill-rule:evenodd;clip-rule:evenodd;stroke-linejoin:round;stroke-miterlimit:2;"><rect id="PrivateConstant" x="0" y="-0" width="16" height="16" style="fill:none;"/><path d="M10.707,4.293l-1.414,1.414c-0,0 -1.707,-1.707 -1.707,-1.707l-2.172,0c0,0 -1.414,1.414 -1.414,1.414l0,2.172c0,-0 1.414,1.414 1.414,1.414l2.172,0l1.707,-1.707l1.414,1.414l-2.293,2.293l-3.828,-0l-2.586,-2.586l-0,-3.828l2.586,-2.586l3.828,-0l2.293,2.293Z"/><path d="M14,12l1,-0l-0,3l-5,-0l-0,-3l1,-0l-0,-1.707l0.793,-0.793l1.414,-0l0.793,0.793l-0,1.707Zm-2,-0l1,-0l0,-1.293l-0.207,-0.207l-0.586,-0c0,-0 -0.207,0.207 -0.207,0.207l-0,1.293Z"/></svg>