<?xml version="1.0" encoding="UTF-8" standalone="no"?><!DOCTYPE svg PUBLIC "-//W3C//DTD SVG 1.1//EN" "http://www.w3.org/Graphics/SVG/1.1/DTD/svg11.dtd"><svg width="100%" height="100%" viewBox="0 0 16 16" version="1.1" xmlns="http://www.w3.org/2000/svg" xmlns:xlink="http://www.w3.org/1999/xlink" xml:space="preserve" xmlns:serif="http://www.serif.com/" style="fill-rule:evenodd;clip-rule:evenodd;stroke-linejoin:round;stroke-miterlimit:2;"><rect id="PrivateClass" x="0" y="0" width="16" height="16" style="fill:none;"/><path d="M9,13l-2,0l0,-6l-1,-0l-2,2l-3,-3l5,-5l3,3l-2,2l4,-0l2,-2l2,2l-2.5,2.5l-1,-0l-1.5,-1.5l-2,-0l-0,5l1,0l-0,1Zm-3,-10.586l-3.586,3.586c0,-0 1.586,1.586 1.586,1.586l3.586,-3.586l-1.586,-1.586Zm7.586,3.586l-0.586,-0.586c0,0 -1.586,1.586 -1.586,1.586l0.586,0.586l1.586,-1.586Z"/><path d="M14,12l1,-0l-0,3l-5,-0l-0,-3l1,-0l-0,-1.707l0.793,-0.793l1.414,-0l0.793,0.793l-0,1.707Zm-2,-0l1,-0l0,-1.293l-0.207,-0.207l-0.586,-0c0,-0 -0.207,0.207 -0.207,0.207l-0,1.293Z"/></svg>