<?xml version="1.0" encoding="UTF-8" standalone="no"?><!DOCTYPE svg PUBLIC "-//W3C//DTD SVG 1.1//EN" "http://www.w3.org/Graphics/SVG/1.1/DTD/svg11.dtd"><svg width="100%" height="100%" viewBox="0 0 16 16" version="1.1" xmlns="http://www.w3.org/2000/svg" xmlns:xlink="http://www.w3.org/1999/xlink" xml:space="preserve" xmlns:serif="http://www.serif.com/" style="fill-rule:evenodd;clip-rule:evenodd;stroke-linejoin:round;stroke-miterlimit:2;"><rect id="PrivateStaticMethod" x="0" y="-0" width="16" height="16" style="fill:none;"/><path d="M9,13l-2,1l-6,-3l0,-7l6,-3l6,3l0,4.5l-1.621,0l-1.379,1.379l-0,1.121l-1,0l-0,2Zm-6.538,-8.613l-0.462,0.231l-0,0.656l4.5,2.25l-0,5.108l0.5,0.25l0.5,-0.25l-0,-5.148l4.5,-2.25l0,-0.616l-0.502,-0.251l-4.539,2.269l-4.497,-2.249Z"/><path d="M14,12l1,0l-0,3l-5,0l-0,-3l1,0l-0,-1.707l0.793,-0.793l1.414,0l0.793,0.793l-0,1.707Zm-2,0l1,0l0,-1.293l-0.207,-0.207l-0.586,-0c0,-0 -0.207,0.207 -0.207,0.207l-0,1.293Z"/></svg>