<?xml version="1.0" encoding="UTF-8" standalone="no"?><!DOCTYPE svg PUBLIC "-//W3C//DTD SVG 1.1//EN" "http://www.w3.org/Graphics/SVG/1.1/DTD/svg11.dtd"><svg width="100%" height="100%" viewBox="0 0 16 16" version="1.1" xmlns="http://www.w3.org/2000/svg" xmlns:xlink="http://www.w3.org/1999/xlink" xml:space="preserve" xmlns:serif="http://www.serif.com/" style="fill-rule:evenodd;clip-rule:evenodd;stroke-linejoin:round;stroke-miterlimit:2;"><rect id="PrivateInterface" x="0" y="0" width="16" height="16" style="fill:none;"/><path d="M10,10.5l-2,-2l0,-1l-3,-0l0,0.5l-1,1l-2,0l-1,-1l0,-2l1,-1l2,0l1,1l0,0.5l3,-0l0,-1l2,-2l3,0l2,2l0,3l-0.689,0.689l-0.69,-0.689l-0.035,0c0.233,-0.233 0.414,-0.414 0.414,-0.414l-0,-2.172l-1.414,-1.414l-2.172,0c0,0 -1.414,1.414 -1.414,1.414l0,2.172c0,-0 1.233,1.233 1.396,1.396l-0.396,0.397l0,0.621Z"/><path d="M14,12l1,0l0,3l-5,0l0,-3l1,0l0,-1.707l0.793,-0.793l1.414,0l0.793,0.793l0,1.707Zm-2,0l1,0l0,-1.293l-0.207,-0.207l-0.586,-0c0,-0 -0.207,0.207 -0.207,0.207l-0,1.293Z"/></svg>