<?xml version="1.0" encoding="UTF-8" standalone="no"?><!DOCTYPE svg PUBLIC "-//W3C//DTD SVG 1.1//EN" "http://www.w3.org/Graphics/SVG/1.1/DTD/svg11.dtd"><svg width="100%" height="100%" viewBox="0 0 17 17" version="1.1" xmlns="http://www.w3.org/2000/svg" xmlns:xlink="http://www.w3.org/1999/xlink" xml:space="preserve" xmlns:serif="http://www.serif.com/" style="fill-rule:evenodd;clip-rule:evenodd;stroke-linejoin:round;stroke-miterlimit:2;"><rect id="PrivateMethod" x="0.184" y="0.856" width="16" height="16" style="fill:none;"/><path d="M9.184,13.856l-2,1l-6,-3l0,-7l6,-3l6,3l0,4.5l-1,-0l0,-3.441l-4.5,2.25l0,5.323l1.5,-0.75l0,1.118Zm-7,-7.941l0,5.323l4.5,2.25l0,-5.323l-4.5,-2.25Zm9.323,-0.78l-4.323,-2.161l-4.323,2.161l4.323,2.162l4.323,-2.162Z"/><path d="M14.184,12.856l1,-0l0,3l-5,-0l0,-3l1,-0l0,-1.707l0.793,-0.793l1.415,-0l0.792,0.793l0,1.707Zm-2,-0l1,-0l0,-1.293l-0.207,-0.207l-0.585,-0c-0,-0 -0.208,0.207 -0.208,0.207l0,1.293Z"/></svg>