<?xml version="1.0" encoding="UTF-8" standalone="no"?><!DOCTYPE svg PUBLIC "-//W3C//DTD SVG 1.1//EN" "http://www.w3.org/Graphics/SVG/1.1/DTD/svg11.dtd"><svg width="100%" height="100%" viewBox="0 0 16 16" version="1.1" xmlns="http://www.w3.org/2000/svg" xmlns:xlink="http://www.w3.org/1999/xlink" xml:space="preserve" xmlns:serif="http://www.serif.com/" style="fill-rule:evenodd;clip-rule:evenodd;stroke-linejoin:round;stroke-miterlimit:2;"><rect id="PrivateEnum" x="0" y="0" width="16" height="16" style="fill:none;"/><path d="M9,14l-5,0l0,-12l8,0l0,6.5l-0.621,0l-1.379,1.379l0,-0.379l-4,0l0,1l4,-0l0,0.5l-1,0l0,0.5l-3,0l0,1l3,0l0,1.5Zm1,-8.5l-4,0l0,1l4,0l0,-1Zm0,2l-4,-0l0,1l4,0l0,-1Zm0,-4l-4,0l0,1l4,-0l0,-1Z"/><path d="M14,12l1,-0l0,3l-5,-0l0,-3l1,-0l0,-1.707l0.793,-0.793l1.414,-0l0.793,0.793l0,1.707Zm-2,-0l1,-0l0,-1.293l-0.207,-0.207l-0.586,-0c0,-0 -0.207,0.207 -0.207,0.207l-0,1.293Z"/></svg>