<?xml version="1.0" encoding="UTF-8" standalone="no"?><!DOCTYPE svg PUBLIC "-//W3C//DTD SVG 1.1//EN" "http://www.w3.org/Graphics/SVG/1.1/DTD/svg11.dtd"><svg width="100%" height="100%" viewBox="0 0 16 16" version="1.1" xmlns="http://www.w3.org/2000/svg" xmlns:xlink="http://www.w3.org/1999/xlink" xml:space="preserve" xmlns:serif="http://www.serif.com/" style="fill-rule:evenodd;clip-rule:evenodd;stroke-linejoin:round;stroke-miterlimit:2;"><rect id="Property" x="0" y="-0" width="16" height="16" style="fill:none;"/><path d="M8.707,10l-4,4l-1.414,-0l-1.293,-1.293l-0,-1.414l4,-4l-0,-3l2.293,-2.293l3.207,-0l0.354,0.854l-2.354,2.353l0,0.586l0.707,0.707l0.586,0l2.353,-2.354l0.854,0.354l0,3.207l-2.293,2.293l-3,-0Zm2.586,-1l1.707,-1.707l0,-1.586l-1.793,1.793l-1.414,-0l-1.293,-1.293l-0,-1.414l1.793,-1.793l-1.586,0l-1.707,1.707l-0,3l-4,4l0,0.586l0.707,0.707l0.586,0l4,-4l3,-0Z"/></svg>