<?xml version="1.0" encoding="UTF-8" standalone="no"?><!DOCTYPE svg PUBLIC "-//W3C//DTD SVG 1.1//EN" "http://www.w3.org/Graphics/SVG/1.1/DTD/svg11.dtd"><svg width="100%" height="100%" viewBox="0 0 16 16" version="1.1" xmlns="http://www.w3.org/2000/svg" xmlns:xlink="http://www.w3.org/1999/xlink" xml:space="preserve" xmlns:serif="http://www.serif.com/" style="fill-rule:evenodd;clip-rule:evenodd;stroke-linejoin:round;stroke-miterlimit:2;"><rect id="ProtectedStaticField" x="0" y="-0" width="16" height="16" style="fill:none;"/><path d="M8.389,11.114l-4.015,2.008l-3.374,-3.937l0,-3.494l8.626,-4.313l3.374,3.937l0,3.185l-2.255,0l-0.473,1.496l-1.529,-0l-0.354,1.118Zm-5.943,-5.028l-0.446,0.223l0,0.793l2.184,2.548l0,1.713l0.442,0.515l0.558,-0.279l0,-1.903l6.816,-3.389l-0,-0.622l-0.297,-0.347l-6.94,3.451l-2.317,-2.703Z"/><path d="M12.534,9.5l0.504,1.496l1.632,-0l0.33,0.979l-1.32,0.924l0.504,1.496l-0.864,0.605l-1.32,-0.924l-1.32,0.924l-0.864,-0.605l0.504,-1.496l-1.32,-0.924l0.33,-0.979l1.632,-0l0.504,-1.496l1.068,0Z"/></svg>