<?xml version="1.0" encoding="UTF-8" standalone="no"?><!DOCTYPE svg PUBLIC "-//W3C//DTD SVG 1.1//EN" "http://www.w3.org/Graphics/SVG/1.1/DTD/svg11.dtd"><svg width="100%" height="100%" viewBox="0 0 16 16" version="1.1" xmlns="http://www.w3.org/2000/svg" xmlns:xlink="http://www.w3.org/1999/xlink" xml:space="preserve" xmlns:serif="http://www.serif.com/" style="fill-rule:evenodd;clip-rule:evenodd;stroke-linejoin:round;stroke-miterlimit:2;"><rect id="ProtectedInterface" x="0" y="0" width="16" height="16" style="fill:none;"/><path d="M9.496,9.996l-1.496,-1.496l0,-1l-3,-0l0,0.5l-1,1l-2,0l-1,-1l0,-2l1,-1l2,0l1,1l0,0.5l3,-0l0,-1l2,-2l3,0l2,2l0,3l-1.326,1.326c-0.073,-0.232 -0.34,-1.075 -0.34,-1.075c0.34,-0.339 0.666,-0.665 0.666,-0.665l-0,-2.172l-1.414,-1.414l-2.172,0c0,0 -1.414,1.414 -1.414,1.414l0,2.172c0,-0 1.414,1.414 1.414,1.414l0.015,-0l-0.157,0.496l-0.776,-0Z"/><path d="M12.534,9.5l0.504,1.496l1.632,-0l0.33,0.979l-1.32,0.924l0.504,1.496l-0.864,0.605l-1.32,-0.924l-1.32,0.924l-0.864,-0.605l0.504,-1.496l-1.32,-0.924l0.33,-0.979l1.632,-0l0.504,-1.496l1.068,0Z"/></svg>