<?xml version="1.0" encoding="UTF-8" standalone="no"?><!DOCTYPE svg PUBLIC "-//W3C//DTD SVG 1.1//EN" "http://www.w3.org/Graphics/SVG/1.1/DTD/svg11.dtd"><svg width="100%" height="100%" viewBox="0 0 16 16" version="1.1" xmlns="http://www.w3.org/2000/svg" xmlns:xlink="http://www.w3.org/1999/xlink" xml:space="preserve" xmlns:serif="http://www.serif.com/" style="fill-rule:evenodd;clip-rule:evenodd;stroke-linejoin:round;stroke-miterlimit:2;"><rect id="ProtectedEnum" x="0" y="0" width="16" height="16" style="fill:none;"/><path d="M9.007,14l-5.007,0l0,-12l8,0l-0,6.5l-1.255,-0l-0.473,1.496l-0.272,-0l-0,-0.496l-4,0l0,1l2.583,-0l-0.316,1l-2.267,0l0,1l2.206,0l1.032,0.77l-0.231,0.73Zm0.993,-8.5l-4,0l0,1l4,0l-0,-1Zm-0,-2l-4,0l0,1l4,-0l-0,-1Zm-0,4l-4,-0l0,1l4,0l-0,-1Z"/><path d="M12.534,9.5l0.504,1.496l1.632,-0l0.33,0.979l-1.32,0.924l0.504,1.496l-0.864,0.605l-1.32,-0.924l-1.32,0.924l-0.864,-0.605l0.504,-1.496l-1.32,-0.924l0.33,-0.979l1.632,-0l0.504,-1.496l1.068,0Z"/></svg>