<?xml version="1.0" encoding="UTF-8" standalone="no"?><!DOCTYPE svg PUBLIC "-//W3C//DTD SVG 1.1//EN" "http://www.w3.org/Graphics/SVG/1.1/DTD/svg11.dtd"><svg width="100%" height="100%" viewBox="0 0 16 16" version="1.1" xmlns="http://www.w3.org/2000/svg" xmlns:xlink="http://www.w3.org/1999/xlink" xml:space="preserve" xmlns:serif="http://www.serif.com/" style="fill-rule:evenodd;clip-rule:evenodd;stroke-linejoin:round;stroke-miterlimit:2;"><rect id="ProtectedConstructor" x="0" y="-0" width="16" height="16" style="fill:none;"/><path d="M8.857,12.986l-0.857,0.514l-5,-3l0,-5l5,-3l5,3l0,3l-1,0l-0,-1.841l-3.5,2.1l0,2.005l-0.5,1.582l0.857,0.64Zm2.668,-7.205l-3.525,-2.115l-3.525,2.115l3.525,2.16l3.525,-2.16Zm-7.525,0.878l0,3.275l3.5,2.1l0,-3.275l-3.5,-2.1Z"/><path d="M13.777,5.916l-0.554,-0.832l1.5,-1l0.554,0.832l-1.5,1Z"/><path d="M10.447,3.224l-0.894,-0.448l1,-2l0.894,0.448l-1,2Z"/><path d="M2.777,5.084l-0.554,0.832l-1.5,-1l0.554,-0.832l1.5,1Z"/><path d="M6.447,2.776l-0.894,0.448l-1,-2l0.894,-0.448l1,2Z"/><path d="M2.223,10.084l0.554,0.832l-1.5,1l-0.554,-0.832l1.5,-1Z"/><path d="M5.553,12.776l0.894,0.448l-1,2l-0.894,-0.448l1,-2Z"/><path d="M12.534,9.5l0.504,1.496l1.632,-0l0.33,0.979l-1.32,0.924l0.504,1.496l-0.864,0.605l-1.32,-0.924l-1.32,0.924l-0.864,-0.605l0.504,-1.496l-1.32,-0.924l0.33,-0.979l1.632,-0l0.504,-1.496l1.068,0Z"/></svg>