<?xml version="1.0" encoding="UTF-8" standalone="no"?><!DOCTYPE svg PUBLIC "-//W3C//DTD SVG 1.1//EN" "http://www.w3.org/Graphics/SVG/1.1/DTD/svg11.dtd"><svg width="100%" height="100%" viewBox="0 0 16 16" version="1.1" xmlns="http://www.w3.org/2000/svg" xmlns:xlink="http://www.w3.org/1999/xlink" xml:space="preserve" xmlns:serif="http://www.serif.com/" style="fill-rule:evenodd;clip-rule:evenodd;stroke-linejoin:round;stroke-miterlimit:2;"><rect id="ProtectedDelegate" x="0" y="0" width="16" height="16" style="fill:none;"/><path d="M9.007,14l-8.007,0l0,-10l4,-0l0,-0.707l1.293,-1.293l3.414,0l1.293,1.293l-0,0.707l4,0l0,5.996l-1,-0l0,-4.996l-1,-0l0,3.5l-1,0l0,-3.5l-8,-0l-0,8l4.876,0l0.362,0.27l-0.231,0.73Zm-6.007,-9l-1,-0l-0,8l1,0l-0,-8Zm7,-1l-0,-0.293l-0.707,-0.707l-2.586,0c0,0 -0.707,0.707 -0.707,0.707l-0,0.293l4,-0Z"/><path d="M12.534,9.5l0.504,1.496l1.632,-0l0.33,0.979l-1.32,0.924l0.504,1.496l-0.864,0.605l-1.32,-0.924l-1.32,0.924l-0.864,-0.605l0.504,-1.496l-1.32,-0.924l0.33,-0.979l1.632,-0l0.504,-1.496l1.068,0Z"/></svg>