<?xml version="1.0" encoding="UTF-8" standalone="no"?><!DOCTYPE svg PUBLIC "-//W3C//DTD SVG 1.1//EN" "http://www.w3.org/Graphics/SVG/1.1/DTD/svg11.dtd"><svg width="100%" height="100%" viewBox="0 0 17 17" version="1.1" xmlns="http://www.w3.org/2000/svg" xmlns:xlink="http://www.w3.org/1999/xlink" xml:space="preserve" xmlns:serif="http://www.serif.com/" style="fill-rule:evenodd;clip-rule:evenodd;stroke-linejoin:round;stroke-miterlimit:2;"><rect id="ProtectedMethod" x="0.184" y="0.856" width="16" height="16" style="fill:none;"/><path d="M9.11,13.893l-1.926,0.963l-6,-3l0,-7l6,-3l6,3l0,4.5l-1,-0l0,-3.441l-4.5,2.25l0,5.323l0.529,-0.265l0.897,0.67Zm2.397,-8.758l-4.323,-2.161l-4.323,2.161l4.323,2.162l4.323,-2.162Zm-9.323,0.78l0,5.323l4.5,2.25l0,-5.323l-4.5,-2.25Z"/><path d="M12.718,10.356l0.505,1.496l1.631,-0l0.33,0.979l-1.32,0.924l0.505,1.496l-0.864,0.605l-1.321,-0.924l-1.32,0.924l-0.864,-0.605l0.505,-1.496l-1.321,-0.924l0.33,-0.979l1.632,-0l0.504,-1.496l1.068,-0Z"/></svg>