<?xml version="1.0" encoding="UTF-8" standalone="no"?><!DOCTYPE svg PUBLIC "-//W3C//DTD SVG 1.1//EN" "http://www.w3.org/Graphics/SVG/1.1/DTD/svg11.dtd"><svg width="100%" height="100%" viewBox="0 0 16 16" version="1.1" xmlns="http://www.w3.org/2000/svg" xmlns:xlink="http://www.w3.org/1999/xlink" xml:space="preserve" xmlns:serif="http://www.serif.com/" style="fill-rule:evenodd;clip-rule:evenodd;stroke-linejoin:round;stroke-miterlimit:2;"><rect id="ProtectedOperator" x="0" y="-0" width="16" height="16" style="fill:none;"/><path d="M8.925,13.037l-1.925,0.963l-6,-3l-0,-7l6,-3l6,3l0,4.5l-2.255,-0l-0.235,0.745l-1.502,0.751l-0.265,-0l-0.743,2.35l0.925,0.691Zm-6.463,-8.65l-0.462,0.231l-0,0.656l4.5,2.25l0,5.108l0.5,0.25l0.5,-0.25l0,-5.148l4.5,-2.25l0,-0.616l-0.502,-0.251l-4.539,2.269l-4.497,-2.249Zm6.538,4.613l2,-1l0,-1l-2,1l0,1Zm-4,1l0,-1l-2,-1l0,1l2,1Zm1.5,-5.5l0,0.5l1,-0l0,-0.5l1,0l0,-1l-1,0l0,-0.5l-1,-0l0,0.5l-1,0l0,1l1,0Z"/><path d="M12.534,9.5l0.504,1.496l1.632,-0l0.33,0.979l-1.32,0.924l0.504,1.496l-0.864,0.605l-1.32,-0.924l-1.32,0.924l-0.864,-0.605l0.504,-1.496l-1.32,-0.924l0.33,-0.979l1.632,-0l0.504,-1.496l1.068,0Z"/></svg>