<?xml version="1.0" encoding="UTF-8" standalone="no"?><!DOCTYPE svg PUBLIC "-//W3C//DTD SVG 1.1//EN" "http://www.w3.org/Graphics/SVG/1.1/DTD/svg11.dtd"><svg width="100%" height="100%" viewBox="0 0 16 16" version="1.1" xmlns="http://www.w3.org/2000/svg" xmlns:xlink="http://www.w3.org/1999/xlink" xml:space="preserve" xmlns:serif="http://www.serif.com/" style="fill-rule:evenodd;clip-rule:evenodd;stroke-linejoin:round;stroke-miterlimit:2;"><rect id="RecordStruct" x="0" y="0" width="16" height="16" style="fill:none;"/><path d="M3.5,5.5l-2.5,0l-0,-4l14,0l-0,4l-2.5,0l1,1l-0,5l-3,3l-5,0l-3,-3l-0,-5l1,-1Zm7.586,0l-6.172,0l-1.414,1.414l0,4.172l2.414,2.414l4.172,-0l2.414,-2.414l-0,-4.172l-1.414,-1.414Zm-9.086,-3l-0,2l12,0l0,-2l-12,-0Z"/><path d="M7.5,7.5l1,0l1,1l-0,1l-1,1l-1,0l-1,-1l-0,-1l1,-1Zm0,1l0,1l1,0l0,-1l-1,0Z"/></svg>