<?xml version="1.0" encoding="UTF-8" standalone="no"?><!DOCTYPE svg PUBLIC "-//W3C//DTD SVG 1.1//EN" "http://www.w3.org/Graphics/SVG/1.1/DTD/svg11.dtd"><svg width="100%" height="100%" viewBox="0 0 16 16" version="1.1" xmlns="http://www.w3.org/2000/svg" xmlns:xlink="http://www.w3.org/1999/xlink" xml:space="preserve" xmlns:serif="http://www.serif.com/" style="fill-rule:evenodd;clip-rule:evenodd;stroke-linejoin:round;stroke-miterlimit:2;"><rect id="RecordClassInternal" x="0" y="0" width="16" height="16" style="fill:none;"/><path d="M9,14l-3,0l-0.5,-0.5l-1,1l-2,-2l0.646,-0.646l-0.646,-0.647l0,-4.207l-1.5,-1.5l4.5,-4.5l1,1l4.5,0l3.5,3.5l-0,3.763l-1,-0.667l-0,-2.682l-2.914,-2.914l-3.086,0l1,1l-3,3l-0,2.5l0.5,-0.5l2,2l-1.793,1.793l0.207,0.207l1.586,-0l0,0.333l1,0.667Zm-4.5,-7.414l2.586,-2.586l-1.586,-1.586l-3.086,3.086l1.086,1.086l0,4.121l1.104,1.104l-0.69,0.689l0.586,0.586l2.086,-2.086l-0.586,-0.586l-0.689,0.69l-0.811,-0.811l-0,-3.707Z"/><path d="M8,6.5l1,0l1,1l-0,1l-1,1l-1,0l-1,-1l-0,-1l1,-1Zm-0,1l-0,1l1,0l-0,-1l-1,0Z"/><path d="M13.412,9.739l1.588,1.059l0,2l-3,2l-3,-2l0,-2l1.588,-1.059l1.412,1.059l1.412,-1.059Z"/></svg>