<?xml version="1.0" encoding="UTF-8" standalone="no"?><!DOCTYPE svg PUBLIC "-//W3C//DTD SVG 1.1//EN" "http://www.w3.org/Graphics/SVG/1.1/DTD/svg11.dtd"><svg width="100%" height="100%" viewBox="0 0 16 16" version="1.1" xmlns="http://www.w3.org/2000/svg" xmlns:xlink="http://www.w3.org/1999/xlink" xml:space="preserve" xmlns:serif="http://www.serif.com/" style="fill-rule:evenodd;clip-rule:evenodd;stroke-linejoin:round;stroke-miterlimit:2;"><rect id="RecordStruct" x="0" y="0" width="16" height="16" style="fill:none;"/><path d="M12,7l1,1l0,4l-3,3l-4,0l-3,-3l0,-4l1,-1l8,0Zm-4.5,4.5l1,0l1,-1l0,-1l-1,-1l-1,0l-1,1l0,1l1,1Z"/><rect x="7.5" y="9.5" width="1" height="1"/><path d="M2,2l12,0l-0,4l-12,0l-0,-4Zm1,1c0,-0 0,2 -0,2l10,0c0,0 -0,-2 0,-2l-10,-0Z"/></svg>