<?xml version="1.0" encoding="UTF-8" standalone="no"?><!DOCTYPE svg PUBLIC "-//W3C//DTD SVG 1.1//EN" "http://www.w3.org/Graphics/SVG/1.1/DTD/svg11.dtd"><svg width="100%" height="100%" viewBox="0 0 16 16" version="1.1" xmlns="http://www.w3.org/2000/svg" xmlns:xlink="http://www.w3.org/1999/xlink" xml:space="preserve" xmlns:serif="http://www.serif.com/" style="fill-rule:evenodd;clip-rule:evenodd;stroke-linejoin:round;stroke-miterlimit:2;"><rect id="RecordStructProtected" x="0" y="0" width="16" height="16" style="fill:none;"/><path d="M9.007,14l-3.507,0l-3,-3l0,-5l1,-1l-2.5,0l0,-4l14,0l-0,4l-2.5,0l1,1l0,3.275c-0.014,-0.043 -0.245,-0.775 -0.245,-0.775l-0.755,0l-0,-2.086l-1.414,-1.414l-6.172,0l-1.414,1.414l0,4.172l2.414,2.414l2.962,-0l0.362,0.27l-0.231,0.73Zm-7.007,-12l-0,2l12,0l0,-2l-12,-0Z"/><path d="M7.5,7l1,0l1,1l-0,1l-1,1l-1,0l-1,-1l-0,-1l1,-1Zm0,1l0,1l1,0l0,-1l-1,0Z"/><path d="M12.534,9.5l0.504,1.496l1.632,-0l0.33,0.979l-1.32,0.924l0.504,1.496l-0.864,0.605l-1.32,-0.924l-1.32,0.924l-0.864,-0.605l0.504,-1.496l-1.32,-0.924l0.33,-0.979l1.632,-0l0.504,-1.496l1.068,0Z"/></svg>