<?xml version="1.0" encoding="UTF-8" standalone="no"?><!DOCTYPE svg PUBLIC "-//W3C//DTD SVG 1.1//EN" "http://www.w3.org/Graphics/SVG/1.1/DTD/svg11.dtd"><svg width="100%" height="100%" viewBox="0 0 16 16" version="1.1" xmlns="http://www.w3.org/2000/svg" xmlns:xlink="http://www.w3.org/1999/xlink" xml:space="preserve" xmlns:serif="http://www.serif.com/" style="fill-rule:evenodd;clip-rule:evenodd;stroke-linejoin:round;stroke-miterlimit:2;"><rect id="RecordClass" x="0" y="0" width="16" height="16" style="fill:none;"/><path d="M2.5,7l-1,-1l4.5,-4.5l1,1l3.5,0l3,3l0,5l-3,3l-5,0l-0.189,-0.189l-0.811,0.81l-2.121,-2.121l0.81,-0.811l-0.689,-0.689l0,-3.5Zm1.5,0.086l0,3.621l0.543,0.543l-0.75,0.75l0.707,0.707l2.207,-2.207l-0.707,-0.707l-0.75,0.75l-0.25,-0.25l-0,-3.207l2.586,-2.586l-1.586,-1.586l-3.086,3.086l1.086,1.086Zm3.5,-0.586l-1,1l0,1l1,1l1,0l1,-1l0,-1l-1,-1l-1,0Zm0,1l1,0l0,1l-1,0l0,-1Z"/></svg>