<?xml version="1.0" encoding="UTF-8" standalone="no"?><!DOCTYPE svg PUBLIC "-//W3C//DTD SVG 1.1//EN" "http://www.w3.org/Graphics/SVG/1.1/DTD/svg11.dtd"><svg width="100%" height="100%" viewBox="0 0 16 16" version="1.1" xmlns="http://www.w3.org/2000/svg" xmlns:xlink="http://www.w3.org/1999/xlink" xml:space="preserve" xmlns:serif="http://www.serif.com/" style="fill-rule:evenodd;clip-rule:evenodd;stroke-linejoin:round;stroke-miterlimit:2;"><rect id="RecordStructProtected" x="0" y="0" width="16" height="16" style="fill:none;"/><path d="M9.01,13.99l-0.01,0.01l-4,0l-3,-3l0,-4l1,-1l8,0l1,1l0,1.5l-1.255,0l-0.473,1.496l-1.529,-0l-0.743,2.35l1.238,0.924l-0.228,0.72Zm-2.51,-3.49l1,0l1,-1l0,-1l-1,-1l-1,0l-1,1l0,1l1,1Z"/><rect x="6.5" y="8.5" width="1" height="1"/><path d="M1,1l12,0l-0,4l-12,0l-0,-4Zm1,1c0,-0 0,2 -0,2l10,0c0,0 -0,-2 0,-2l-10,-0Z"/><path d="M12.534,9.5l0.504,1.496l1.632,-0l0.33,0.979l-1.32,0.924l0.504,1.496l-0.864,0.605l-1.32,-0.924l-1.32,0.924l-0.864,-0.605l0.504,-1.496l-1.32,-0.924l0.33,-0.979l1.632,-0l0.504,-1.496l1.068,0Z"/></svg>