<?xml version="1.0" encoding="UTF-8" standalone="no"?><!DOCTYPE svg PUBLIC "-//W3C//DTD SVG 1.1//EN" "http://www.w3.org/Graphics/SVG/1.1/DTD/svg11.dtd"><svg width="100%" height="100%" viewBox="0 0 16 16" version="1.1" xmlns="http://www.w3.org/2000/svg" xmlns:xlink="http://www.w3.org/1999/xlink" xml:space="preserve" xmlns:serif="http://www.serif.com/" style="fill-rule:evenodd;clip-rule:evenodd;stroke-linejoin:round;stroke-miterlimit:2;"><rect id="RecordStructPrivate" x="0" y="0" width="16" height="16" style="fill:none;"/><path d="M9,14l-4,0l-3,-3l0,-4l1,-1l8,0l1,1l0,1.5l-0.621,0l-1.379,1.379l-0,1.121l-1,0l-0,3Zm-2.5,-3.5l1,0l1,-1l0,-1l-1,-1l-1,0l-1,1l0,1l1,1Z"/><rect x="6.5" y="8.5" width="1" height="1"/><path d="M1,1l12,0l-0,4l-12,0l-0,-4Zm1,1c0,-0 0,2 -0,2l10,0c0,0 -0,-2 0,-2l-10,-0Z"/><path d="M14,12l1,0l-0,3l-5,0l-0,-3l1,0l-0,-1.707l0.793,-0.793l1.414,0l0.793,0.793l-0,1.707Zm-2,0l1,0l0,-1.293l-0.207,-0.207l-0.586,-0c0,-0 -0.207,0.207 -0.207,0.207l-0,1.293Z"/></svg>