<?xml version="1.0" encoding="UTF-8" standalone="no"?><!DOCTYPE svg PUBLIC "-//W3C//DTD SVG 1.1//EN" "http://www.w3.org/Graphics/SVG/1.1/DTD/svg11.dtd"><svg width="100%" height="100%" viewBox="0 0 16 16" version="1.1" xmlns="http://www.w3.org/2000/svg" xmlns:xlink="http://www.w3.org/1999/xlink" xml:space="preserve" xmlns:serif="http://www.serif.com/" style="fill-rule:evenodd;clip-rule:evenodd;stroke-linejoin:round;stroke-miterlimit:2;"><rect id="RecordStructInternal" x="0" y="0" width="16" height="16" style="fill:none;"/><path d="M9.009,13.991l-0.009,0.009l-4,0l-3,-3l0,-4l1,-1l8,0l1,1l-0,2.533l-1.378,-1.033l-2.622,1.748l-0,3.071l1.009,0.672Zm-2.509,-3.491l1,0l1,-1l0,-1l-1,-1l-1,0l-1,1l0,1l1,1Z"/><rect x="6.5" y="8.5" width="1" height="1"/><path d="M1,1l12,0l-0,4l-12,0l-0,-4Zm1,1c0,-0 0,2 -0,2l10,0c0,0 -0,-2 0,-2l-10,-0Z"/><path d="M13.412,9.725l1.588,1.058l-0,2l-3,2l-3,-2l-0,-2l1.588,-1.058l1.412,1.058l1.412,-1.058Z"/></svg>