<?xml version="1.0" encoding="UTF-8" standalone="no"?><!DOCTYPE svg PUBLIC "-//W3C//DTD SVG 1.1//EN" "http://www.w3.org/Graphics/SVG/1.1/DTD/svg11.dtd"><svg width="100%" height="100%" viewBox="0 0 16 16" version="1.1" xmlns="http://www.w3.org/2000/svg" xmlns:xlink="http://www.w3.org/1999/xlink" xml:space="preserve" xmlns:serif="http://www.serif.com/" style="fill-rule:evenodd;clip-rule:evenodd;stroke-linejoin:round;stroke-miterlimit:2;"><rect id="Solution" x="0" y="-0" width="16" height="16" style="fill:none;"/><path d="M2,2l2,-0l1,-1l1,1l2,-0l0,2l-1,1l1,1l0,2l-2,-0l-1,-1l-1,1l-2,-0l0,-2l-1,-1l1,-1l0,-2"/><path d="M2,9l2,-0l1,-1l1,1l2,-0l0,2l-1,1l1,1l0,2l-2,-0l-1,-1l-1,1l-2,-0l0,-2l-1,-1l1,-1l0,-2"/><path d="M9,9l2,-0l1,-1l1,1l2,-0l0,2l-1,1l1,1l0,2l-2,-0l-1,-1l-1,1l-2,-0l0,-2l-1,-1l1,-1l0,-2"/><path d="M9,2l2,-0l1,-1l1,1l2,-0l0,2l-1,1l1,1l0,2l-2,-0l-1,-1l-1,1l-2,-0l0,-2l-1,-1l1,-1l0,-2"/></svg>