<?xml version="1.0" encoding="UTF-8" standalone="no"?><!DOCTYPE svg PUBLIC "-//W3C//DTD SVG 1.1//EN" "http://www.w3.org/Graphics/SVG/1.1/DTD/svg11.dtd"><svg width="100%" height="100%" viewBox="0 0 16 16" version="1.1" xmlns="http://www.w3.org/2000/svg" xmlns:xlink="http://www.w3.org/1999/xlink" xml:space="preserve" xmlns:serif="http://www.serif.com/" style="fill-rule:evenodd;clip-rule:evenodd;stroke-linejoin:round;stroke-miterlimit:2;"><rect id="Type" x="0" y="-0" width="16" height="16" style="fill:none;"/><path d="M2,3l0,-1l12,-0l0,1.5l-4,0l2,2l2,0l0,8.5l-9,-0l0,-3l-3,-0l0,-1l3,-0l0,-3l-3,-0l0,-1l3,-0l0,-0.5l2.586,-0l0.914,0.914l-0,6.086l2,0l0,-6.914l-2,-2.086l-3.5,-0l0,-0.5l-3,-0Zm9.5,3.414l-0,6.586l1.5,-0l-0,-6.5l-1.414,0l-0.086,-0.086Zm-4,6.586l0,-6.172c0,0 -0.328,-0.328 -0.328,-0.328l-1.172,-0l0,3.5l-0,3l1.5,-0Z"/><path d="M2,3l0,-1l12,-0l0,1.5l-4,0l2,2l2,0l0,8.5l-9,-0l0,-3l-3,-0l0,-1l3,-0l0,-3l-3,-0l0,-1l3,-0l0,-0.5l2.586,-0l0.914,0.914l-0,6.086l2,0l0,-6.914l-2,-2.086l-3.5,-0l0,-0.5l-3,-0Z"/></svg>