<?xml version="1.0" encoding="UTF-8" standalone="no"?><!DOCTYPE svg PUBLIC "-//W3C//DTD SVG 1.1//EN" "http://www.w3.org/Graphics/SVG/1.1/DTD/svg11.dtd"><svg width="100%" height="100%" viewBox="0 0 16 16" version="1.1" xmlns="http://www.w3.org/2000/svg" xmlns:xlink="http://www.w3.org/1999/xlink" xml:space="preserve" xmlns:serif="http://www.serif.com/" style="fill-rule:evenodd;clip-rule:evenodd;stroke-linejoin:round;stroke-miterlimit:2;"><rect id="Type" x="0" y="-0" width="16" height="16" style="fill:none;"/><path d="M2,3l0,-1l12,-0l0,1.5l-4,-0l1,1l3,0l0,9.5l-9,-0l0,-5l-3,-0l0,-1l3,-0l0,-2l-3,-0l0,-1l3,-0l0,-0.5l3.293,-0l0.707,0.707l0,7.293l1,-0l0,-7.707l-1.293,-1.293l-3.707,-0l0,-0.5l-3,-0Zm6,10l-0,-7.379l-0.121,-0.121l-1.879,-0l0,2.5l-0,5l2,-0Zm3,-7.5l0,7.5l2,-0c-0,-0 -0,-7.5 0,-7.5l-2,-0Z"/><path d="M2,3l0,-1l12,-0l0,1.5l-4,-0l1,1l3,0l0,9.5l-9,-0l0,-5l-3,-0l0,-1l3,-0l0,-2l-3,-0l0,-1l3,-0l0,-0.5l3.293,-0l0.707,0.707l0,7.293l1,-0l0,-7.707l-1.293,-1.293l-3.707,-0l0,-0.5l-3,-0Z"/></svg>